<svg xmlns="http://www.w3.org/2000/svg" xmlns:xlink="http://www.w3.org/1999/xlink" version="1.1" width="1000" height="1000" viewBox="0 0 1000 1000" xml:space="preserve">
<desc>Created with Fabric.js 3.5.0</desc>
<defs>
</defs>
<rect x="0" y="0" width="100%" height="100%" fill="rgba(255,255,255,0)"/>
<g transform="matrix(37.2779 0 0 37.2779 425.3754 412.0533)" id="505999">
<path style="stroke: none; stroke-width: 0; stroke-dasharray: none; stroke-linecap: butt; stroke-dashoffset: 0; stroke-linejoin: miter; stroke-miterlimit: 4; is-custom-font: none; font-file-url: none; fill: rgb(57,112,228); fill-rule: nonzero; opacity: 1;" vector-effect="non-scaling-stroke" transform=" translate(-12, -12.1153)" d="M 11.1142 1.43752 C 11.6726 1.16175 12.3274 1.16175 12.8858 1.43752 L 19.9628 4.9333 C 20.5056 5.20144 20.8978 5.70105 21.0293 6.29205 L 22.7955 14.2294 C 22.925 14.8114 22.7882 15.4208 22.4222 15.8914 L 17.496 22.2276 C 17.1171 22.7149 16.5344 23 15.9171 23 H 8.08294 C 7.46563 23 6.88291 22.7149 6.504 22.2276 L 1.57778 15.8914 C 1.21185 15.4208 1.07497 14.8114 1.20446 14.2294 L 2.9707 6.29205 C 3.10221 5.70105 3.49436 5.20144 4.0372 4.9333 L 11.1142 1.43752 Z" stroke-linecap="round"/>
</g>
<g transform="matrix(1 0 0 1 430.5642 869.1734)" style="" id="259455">
		
<path xml:space="preserve" font-family="Alef" font-size="77" font-style="normal" font-weight="bold" style="stroke: none; stroke-width: 0; stroke-dasharray: none; stroke-linecap: butt; stroke-dashoffset: 0; stroke-linejoin: miter; stroke-miterlimit: 4; is-custom-font: none; font-file-url: none; fill: rgb(95,115,204); fill-rule: nonzero; opacity: 1; white-space: pre;" d="M-251.30-29.88L-218.97-29.88L-218.97-22.17L-240.81-22.17L-240.81-9.91L-225.36-9.91L-225.36-2.20L-240.81-2.20L-240.81 16.48L-218.18 16.48L-218.18 24.19L-251.30 24.19L-251.30-29.88ZM-171.97-6.53L-171.67-6.53Q-170.43-8.93-169.11-10.68Q-167.80-12.43-166.28-13.56Q-164.75-14.69-162.97-15.23Q-161.18-15.78-158.93-15.78L-158.93-15.78Q-154.23-15.78-151.54-13.58Q-148.85-11.38-147.72-7.17L-147.72-7.17Q-146.78-3.63-146.78 1.33L-146.78 1.33L-146.78 24.19L-157.08 24.19L-157.08-1.60Q-157.08-3.07-157.33-4.18Q-157.57-5.29-158.02-6.08L-158.02-6.08Q-158.66-7.24-159.73-7.75Q-160.81-8.26-162.23-8.26L-162.23-8.26Q-163.62-8.26-164.90-7.52Q-166.18-6.79-167.33-5.66Q-168.48-4.54-169.45-3.14Q-170.43-1.75-171.22-0.44L-171.22-0.44Q-171.18-0.02-171.18 0.39Q-171.18 0.80-171.18 1.25L-171.18 1.25L-171.18 24.19L-181.48 24.19L-181.48-1.60Q-181.48-3.07-181.73-4.18Q-181.97-5.29-182.42-6.08L-182.42-6.08Q-183.06-7.24-184.13-7.75Q-185.21-8.26-186.63-8.26L-186.63-8.26Q-187.99-8.26-189.23-7.52Q-190.47-6.79-191.60-5.66Q-192.73-4.54-193.70-3.14Q-194.68-1.75-195.47-0.44L-195.47-0.44L-195.47 24.19L-205.77 24.19L-205.77 0.09Q-205.77-2.09-205.81-3.99Q-205.85-5.89-205.96-7.56Q-206.07-9.24-206.30-10.74Q-206.52-12.24-206.90-13.67L-206.90-13.67Q-204.46-14.31-202.03-14.82Q-199.61-15.33-197.12-15.78L-197.12-15.78Q-196.86-14.99-196.64-14.22Q-196.41-13.45-196.26-12.56Q-196.11-11.68-196.00-10.63Q-195.88-9.57-195.77-8.22L-195.77-8.22L-195.28-8.22Q-194.08-10.03-192.86-11.43Q-191.64-12.84-190.24-13.80Q-188.85-14.76-187.16-15.27Q-185.47-15.78-183.33-15.78L-183.33-15.78Q-178.48-15.78-175.75-13.41Q-173.02-11.04-171.97-6.53L-171.97-6.53ZM-126.37-8.63L-125.95-8.63Q-121.59-15.78-113.62-15.78L-113.62-15.78Q-109.67-15.78-106.97-14.24Q-104.26-12.69-102.59-10.08Q-100.91-7.47-100.18-4.03Q-99.45-0.59-99.45 3.25L-99.45 3.25Q-99.45 8.66-100.89 12.74Q-102.34 16.82-104.97 19.56Q-107.60 22.31-111.27 23.70Q-114.94 25.09-119.37 25.09L-119.37 25.09Q-120.99 25.09-122.51 24.94Q-124.03 24.79-125.58 24.56L-125.58 24.56L-125.58 39.27L-135.84 39.27L-135.84-2.13Q-135.84-3.90-135.86-5.44Q-135.88-6.98-135.99-8.37Q-136.10-9.76-136.31-11.10Q-136.52-12.43-136.89-13.78L-136.89-13.78Q-134.49-14.46-132.34-14.91Q-130.20-15.36-127.72-15.78L-127.72-15.78Q-127.46-14.99-127.23-14.27Q-127.00-13.56-126.84-12.73Q-126.67-11.90-126.55-10.93Q-126.44-9.95-126.37-8.63L-126.37-8.63ZM-125.69-1.04L-125.69 16.82Q-122.68 17.57-120.09 17.57L-120.09 17.57Q-117.87 17.57-115.97 16.97Q-114.07 16.37-112.70 15.01Q-111.33 13.66-110.54 11.52Q-109.75 9.38-109.75 6.29L-109.75 6.29Q-109.75 3.10-110.01 0.43Q-110.27-2.24-111.06-4.18Q-111.85-6.11-113.32-7.19Q-114.79-8.26-117.19-8.26L-117.19-8.26Q-118.96-8.26-120.29-7.54Q-121.63-6.83-122.72-5.55L-122.72-5.55Q-123.55-4.65-124.26-3.50Q-124.97-2.36-125.69-1.04L-125.69-1.04ZM-81.66-29.95L-81.66 8.85Q-81.66 11.97-81.61 14.08Q-81.55 16.18-81.40 17.76L-81.40 17.76Q-81.32 18.59-81.25 19.21Q-81.17 19.83-81.10 20.41Q-81.02 20.99-80.89 21.58Q-80.76 22.16-80.57 22.87L-80.57 22.87Q-83.05 23.62-85.53 24.17Q-88.02 24.72-90.61 25.09L-90.61 25.09Q-91.17 23.40-91.57 21.50Q-91.96 19.60-91.96 17.35L-91.96 17.35L-91.96-29.95L-81.66-29.95ZM-53.92-15.78L-53.92-15.78Q-48.99-15.78-45.38-14.24Q-41.77-12.69-39.42-9.97Q-37.07-7.24-35.92-3.50Q-34.78 0.24-34.78 4.64L-34.78 4.64Q-34.78 9.04-35.92 12.80Q-37.07 16.56-39.42 19.28Q-41.77 22.01-45.38 23.55Q-48.99 25.09-53.92 25.09L-53.92 25.09Q-58.84 25.09-62.45 23.55Q-66.06 22.01-68.41 19.28Q-70.76 16.56-71.91 12.80Q-73.05 9.04-73.05 4.64L-73.05 4.64Q-73.05 0.24-71.91-3.50Q-70.76-7.24-68.41-9.97Q-66.06-12.69-62.45-14.24Q-58.84-15.78-53.92-15.78ZM-53.92-8.41L-53.92-8.41Q-56.62-8.41-58.35-7.39Q-60.08-6.38-61.06-4.61Q-62.04-2.84-62.39-0.46Q-62.75 1.93-62.75 4.64L-62.75 4.64Q-62.75 7.38-62.39 9.77Q-62.04 12.16-61.06 13.92Q-60.08 15.69-58.35 16.71Q-56.62 17.72-53.92 17.72L-53.92 17.72Q-51.21 17.72-49.48 16.71Q-47.75 15.69-46.77 13.92Q-45.79 12.16-45.44 9.77Q-45.08 7.38-45.08 4.64L-45.08 4.64Q-45.08 1.93-45.44-0.46Q-45.79-2.84-46.77-4.61Q-47.75-6.38-49.48-7.39Q-51.21-8.41-53.92-8.41ZM0.26-14.91L10.64-14.91L10.64 23.89Q10.64 28.29 9.23 31.35Q7.82 34.42 5.24 36.33Q2.67 38.25-0.92 39.12Q-4.51 39.98-8.84 39.98L-8.84 39.98Q-12.18 39.98-15.62 39.40Q-19.06 38.81-21.99 37.65L-21.99 37.65Q-21.21 35.77-20.38 33.96Q-19.55 32.16-18.69 30.35L-18.69 30.35Q-15.98 31.22-13.20 31.84Q-10.41 32.46-7.82 32.46L-7.82 32.46Q-7.07 32.46-6.18 32.40Q-5.30 32.35-4.40 32.12Q-3.50 31.90-2.63 31.43Q-1.77 30.96-1.11 30.15Q-0.45 29.34-0.04 28.12Q0.38 26.90 0.41 25.17L0.41 25.17L0.41 17.53L0.08 17.53Q-1.17 19.41-2.50 20.82Q-3.83 22.23-5.38 23.19Q-6.92 24.15-8.76 24.62Q-10.60 25.09-12.86 25.09L-12.86 25.09Q-16.54 25.09-18.95 23.93Q-21.36 22.76-22.82 20.58L-22.82 20.58Q-24.25 18.32-24.85 15.17Q-25.45 12.01-25.45 7.98L-25.45 7.98L-25.45-14.91L-15.15-14.91L-15.15 10.95Q-15.15 14.19-13.65 15.88Q-12.14 17.57-9.51 17.57L-9.51 17.57Q-8.08 17.57-6.71 16.89Q-5.34 16.22-4.06 15.13Q-2.78 14.04-1.69 12.63Q-0.60 11.22 0.26 9.79L0.26 9.79L0.26-14.91ZM53.43 15.35L55.83 22.42Q54.29 23.06 52.47 23.55Q50.64 24.04 48.65 24.38Q46.66 24.72 44.61 24.90Q42.56 25.09 40.61 25.09L40.61 25.09Q30.72 25.09 25.66 20.34Q20.60 15.58 20.60 5.77L20.60 5.77Q20.60 1.40 21.62-2.51Q22.63-6.42 24.91-9.37Q27.18-12.32 30.89-14.05Q34.59-15.78 39.97-15.78L39.97-15.78Q49.37-15.78 53.99-10.80Q58.61-5.81 58.61 4.41L58.61 4.41L58.61 7.38L30.83 7.38Q30.91 9.94 31.43 11.89Q31.96 13.85 33.18 15.18Q34.40 16.52 36.39 17.21Q38.39 17.91 41.40 17.91L41.40 17.91Q44.03 17.91 47.07 17.25Q50.12 16.59 53.43 15.35L53.43 15.35ZM30.98 0.69L48.31 0.69Q48.05-8.60 39.97-8.60L39.97-8.60Q35.79-8.60 33.63-6.19Q31.47-3.78 30.98 0.69L30.98 0.69ZM98.62 15.35L101.02 22.42Q99.48 23.06 97.66 23.55Q95.84 24.04 93.84 24.38Q91.85 24.72 89.80 24.90Q87.75 25.09 85.80 25.09L85.80 25.09Q75.91 25.09 70.85 20.34Q65.80 15.58 65.80 5.77L65.80 5.77Q65.80 1.40 66.81-2.51Q67.83-6.42 70.10-9.37Q72.38-12.32 76.08-14.05Q79.78-15.78 85.16-15.78L85.16-15.78Q94.56-15.78 99.18-10.80Q103.81-5.81 103.81 4.41L103.81 4.41L103.81 7.38L76.02 7.38Q76.10 9.94 76.62 11.89Q77.15 13.85 78.37 15.18Q79.59 16.52 81.59 17.21Q83.58 17.91 86.59 17.91L86.59 17.91Q89.22 17.91 92.26 17.25Q95.31 16.59 98.62 15.35L98.62 15.35ZM76.17 0.69L93.51 0.69Q93.24-8.60 85.16-8.60L85.16-8.60Q80.99-8.60 78.82-6.19Q76.66-3.78 76.17 0.69L76.17 0.69ZM150.95-29.88L161.48-29.88L181.90 24.19L171.29 24.19L165.13 7.57L147.31 7.57L141.14 24.19L130.54 24.19L150.95-29.88ZM162.35 0.01L156.22-18.71L150.09 0.01L162.35 0.01ZM190.43-29.88L211.37-29.88Q215.32-29.88 218.42-28.81Q221.53-27.73 223.67-25.67Q225.81-23.60 226.94-20.55Q228.07-17.51 228.07-13.56L228.07-13.56Q228.07-9.27 226.68-6.06Q225.29-2.84 222.69-0.70Q220.10 1.44 216.41 2.53Q212.73 3.62 208.18 3.62L208.18 3.62Q206.07 3.62 204.21 3.49Q202.35 3.36 200.92 3.21L200.92 3.21L200.92 24.19L190.43 24.19L190.43-29.88ZM200.92-22.66L200.92-3.97Q202.13-3.78 203.31-3.69Q204.49-3.60 205.62-3.60L205.62-3.60Q208.52-3.60 210.72-4.08Q212.92-4.57 214.40-5.70Q215.89-6.83 216.64-8.63Q217.39-10.44 217.39-13.11L217.39-13.11Q217.39-15.74 216.83-17.56Q216.26-19.39 215.02-20.51Q213.78-21.64 211.83-22.15Q209.87-22.66 207.09-22.66L207.09-22.66L200.92-22.66ZM239.99-29.88L250.48-29.88L250.48 24.19L239.99 24.19L239.99-29.88Z"/></g>
<g transform="matrix(1 0 0 1 535.2613 935.0799)" style="" id="568281">
		
<path xml:space="preserve" font-family="Abhaya Libre" font-size="36" font-style="normal" font-weight="bold" style="stroke: none; stroke-width: 0; stroke-dasharray: none; stroke-linecap: butt; stroke-dashoffset: 0; stroke-linejoin: miter; stroke-miterlimit: 4; is-custom-font: none; font-file-url: none; fill: rgb(82,113,255); fill-rule: nonzero; opacity: 1; white-space: pre;" d="M-138.38-5.04L-138.38-5.04Q-138.38-8.03-141.47-9.19L-141.47-9.19Q-143.09-9.78-145.27-9.78L-145.27-9.78L-156.20-9.78L-156.20-8.84L-153.39-8.84L-153.39 10.36L-156.20 10.36L-156.20 11.31L-144.81 11.31Q-140.10 11.31-137.99 8.46L-137.99 8.46Q-136.90 6.98-136.90 5.19L-136.90 5.19Q-136.90 1.68-140.45 0.38L-140.45 0.38Q-141.40 0.02-142.52-0.15L-142.52-0.15Q-139.57-1.14-138.66-3.53L-138.66-3.53Q-138.38-4.30-138.38-5.04ZM-149.06-8.84L-146.88-8.84Q-142.91-8.77-142.88-4.76L-142.88-4.76Q-142.88-1.87-144.95-0.96L-144.95-0.96Q-145.72-0.61-146.71-0.61L-146.71-0.61L-149.06-0.61L-149.06-8.84ZM-149.06 0.38L-145.90 0.38Q-142.95 0.38-141.96 3.01L-141.96 3.01Q-141.61 3.93-141.61 5.05L-141.61 5.05Q-141.61 8.67-144.00 9.90L-144.00 9.90Q-144.95 10.36-146.18 10.36L-146.18 10.36L-149.06 10.36L-149.06 0.38ZM-131.52 16.93L-131.52 16.93Q-132.12 16.93-132.47 16.02L-132.47 16.02Q-132.93 14.82-133.31 14.54L-133.31 14.54Q-133.70 14.26-134.26 14.26L-134.26 14.26Q-135.46 14.26-135.77 15.28L-135.77 15.28Q-135.84 15.53-135.84 15.74L-135.84 15.74Q-135.84 16.97-134.37 17.67L-134.37 17.67Q-133.45 18.09-132.36 18.09L-132.36 18.09Q-129.48 18.09-127.48 14.68L-127.48 14.68Q-126.70 13.42-126.00 11.63L-126.00 11.63L-120.76-1.77Q-120.38-2.72-119.88-2.82L-119.88-2.82Q-119.74-2.86-119.57-2.86L-119.57-2.86Q-118.83-2.86-118.72-3.32L-118.72-3.32Q-118.69-3.49-118.69-3.74L-118.69-3.74L-124.10-3.74L-124.10-2.86L-121.46-2.86L-125.54 7.41L-129.94-2.86L-127.72-2.86L-127.72-3.74L-135.56-3.74L-135.56-2.86L-133.98-2.86L-127.30 11.80Q-129.09 16.16-130.75 16.79L-130.75 16.79Q-131.13 16.93-131.52 16.93ZM-99.28-10.14L-99.28-10.14Q-103.82-10.14-106.98-7.25L-106.98-7.25Q-110.32-4.19-110.32 0.66L-110.32 0.66Q-110.32 6.25-106.35 9.34L-106.35 9.34Q-103.36 11.66-99.39 11.66L-99.39 11.66Q-94.89 11.66-91.76 8.74L-91.76 8.74Q-88.45 5.65-88.45 0.80L-88.45 0.80Q-88.45-4.97-92.53-7.99L-92.53-7.99Q-95.41-10.14-99.28-10.14ZM-99.28 10.64L-99.28 10.64Q-103.64 10.64-104.87 6.04L-104.87 6.04Q-105.43 3.89-105.43 0.80L-105.43 0.80Q-105.43-8.59-100.05-9.08L-100.05-9.08Q-99.70-9.12-99.39-9.12L-99.39-9.12Q-94.68-9.12-93.66-3.39L-93.66-3.39Q-93.34-1.63-93.34 0.66L-93.34 0.66Q-93.34 9.31-97.70 10.47L-97.70 10.47Q-98.44 10.64-99.28 10.64ZM-78.15 17.07L-80.16 17.07L-80.16 9.97Q-78.68 11.63-75.87 11.66L-75.87 11.66Q-72.53 11.66-70.42 9.09L-70.42 9.09Q-68.55 6.81-68.55 3.33L-68.55 3.33Q-68.55-0.96-71.05-3.00L-71.05-3.00Q-72.56-4.23-74.53-4.23L-74.53-4.23Q-77.45-4.23-79.21-2.05L-79.21-2.05Q-79.88-1.21-80.23-0.22L-80.23-0.22L-80.40-3.74L-86.24-3.74L-86.24-2.86L-84.02-2.86L-84.02 15.18Q-84.02 16.65-85.01 16.93L-85.01 16.93Q-85.46 17.07-86.24 17.07L-86.24 17.07L-86.24 17.99L-77.27 17.99Q-77.27 17.22-77.73 17.11L-77.73 17.11Q-77.94 17.07-78.15 17.07L-78.15 17.07ZM-76.15-2.61L-76.15-2.61Q-72.81-2.54-72.77 3.79L-72.77 3.79Q-72.77 9.80-75.62 10.64L-75.62 10.64Q-76.01 10.75-76.46 10.75L-76.46 10.75Q-78.61 10.75-79.59 8.25L-79.59 8.25Q-80.19 6.67-80.19 4.45L-80.19 4.45Q-80.19-0.01-78.15-1.84L-78.15-1.84Q-77.24-2.61-76.15-2.61ZM-60.61 10.68L-60.61 10.68Q-58.25 10.68-57.69 9.09L-57.69 9.09Q-57.59 8.74-57.59 8.39L-57.59 8.39Q-57.59 6.70-59.80 5.54L-59.80 5.54Q-60.29 5.30-61.35 4.84L-61.35 4.84Q-64.05 3.64-64.97 2.66L-64.97 2.66Q-65.92 1.54-65.92 0.06L-65.92 0.06Q-65.92-2.72-62.89-3.77L-62.89-3.77Q-61.56-4.23-59.91-4.23L-59.91-4.23Q-57.34-4.23-55.69-3.25L-55.69-3.25Q-55.69-4.30-55.13-4.41L-55.13-4.41Q-54.95-4.44-54.77-4.44L-54.77-4.44L-54.77-0.05L-55.83-0.05Q-55.97-3.25-59.34-3.28L-59.34-3.28Q-61.70-3.28-62.26-1.80L-62.26-1.80Q-62.40-1.42-62.40-1.03L-62.40-1.03Q-62.40 0.45-60.29 1.54L-60.29 1.54Q-59.84 1.75-58.82 2.20L-58.82 2.20Q-56.04 3.40-55.13 4.42L-55.13 4.42Q-54.07 5.61-54.07 7.23L-54.07 7.23Q-54.07 10.22-57.16 11.24L-57.16 11.24Q-58.43 11.66-59.98 11.66L-59.98 11.66Q-62.93 11.66-64.93 10.50L-64.93 10.50Q-64.93 11.41-65.39 11.56L-65.39 11.56Q-65.60 11.59-65.88 11.59L-65.88 11.59L-65.88 6.25L-64.76 6.25Q-64.69 10.64-60.61 10.68ZM-52.31-3.63L-52.31-2.72L-49.89-2.72L-49.89 6.42Q-49.57 11.52-45.14 11.70L-45.14 11.70Q-42.36 11.70-41.38 9.48L-41.38 9.48Q-41.03 8.71-40.82 7.62L-40.82 7.62L-41.77 7.48Q-42.54 10.61-44.26 10.64L-44.26 10.64Q-45.74 10.64-45.98 8.64L-45.98 8.64Q-46.02 8.29-46.02 7.93L-46.02 7.93L-46.02-2.72L-41.10-2.72L-41.10-3.63L-46.02-3.63L-46.02-7.71L-49.89-6.97L-49.89-3.63L-52.31-3.63ZM-31.11 10.39L-31.11 10.39L-33.68 10.39L-33.68 2.77Q-33.43-0.61-31.78-1.77L-31.78-1.77Q-31.39-2.02-31.11-2.02L-31.11-2.02Q-30.66-2.02-30.20-1.21L-30.20-1.21Q-29.60-0.08-28.93 0.13L-28.93 0.13Q-28.62 0.23-28.27 0.23L-28.27 0.23Q-27.00 0.23-26.47-1.00L-26.47-1.00Q-26.30-1.38-26.30-1.80L-26.30-1.80Q-26.30-3.49-27.95-3.91L-27.95-3.91Q-28.37-4.02-28.79-4.02L-28.79-4.02Q-30.94-4.02-32.63-2.26L-32.63-2.26Q-33.36-1.45-33.79-0.43L-33.79-0.43L-34.00-3.74L-39.80-3.74L-39.80-2.86L-37.58-2.86L-37.58 8.50Q-37.58 10.01-38.64 10.29L-38.64 10.29Q-39.09 10.39-39.80 10.39L-39.80 10.39L-39.80 11.31L-30.27 11.31Q-30.27 10.50-30.80 10.43L-30.80 10.43Q-30.94 10.39-31.11 10.39ZM-17.26-3.32L-17.26-3.32Q-15.08-3.32-14.66-0.75L-14.66-0.75Q-14.55-0.19-14.55 0.41L-14.55 0.41Q-14.55 2.06-15.75 2.48L-15.75 2.48Q-16.52 2.70-18.00 2.66L-18.00 2.66L-20.71 2.56Q-20.57-2.44-18.07-3.21L-18.07-3.21Q-17.65-3.32-17.26-3.32ZM-10.83 7.76L-10.83 7.76L-11.67 7.48Q-12.69 9.69-14.91 10.39L-14.91 10.39Q-15.64 10.64-16.42 10.64L-16.42 10.64Q-20.53 10.64-20.71 3.64L-20.71 3.64Q-20.71 3.61-20.71 3.57L-20.71 3.57L-17.16 3.64Q-11.88 3.75-10.83 2.13L-10.83 2.13Q-10.48 1.57-10.48 0.80L-10.48 0.80Q-10.48-1.98-13.29-3.39L-13.29-3.39Q-15.05-4.23-17.26-4.23L-17.26-4.23Q-21.30-4.23-23.45-1.31L-23.45-1.31Q-24.96 0.76-24.96 3.72L-24.96 3.72Q-24.96 8.53-21.41 10.61L-21.41 10.61Q-19.51 11.66-17.16 11.66L-17.16 11.66Q-13.15 11.66-11.36 8.81L-11.36 8.81Q-11.04 8.29-10.83 7.76ZM-0.67-3.32L-0.67-3.32Q1.51-3.32 1.93-0.75L1.93-0.75Q2.04-0.19 2.04 0.41L2.04 0.41Q2.04 2.06 0.84 2.48L0.84 2.48Q0.07 2.70-1.41 2.66L-1.41 2.66L-4.11 2.56Q-3.97-2.44-1.48-3.21L-1.48-3.21Q-1.05-3.32-0.67-3.32ZM5.77 7.76L5.77 7.76L4.92 7.48Q3.90 9.69 1.69 10.39L1.69 10.39Q0.95 10.64 0.18 10.64L0.18 10.64Q-3.94 10.64-4.11 3.64L-4.11 3.64Q-4.11 3.61-4.11 3.57L-4.11 3.57L-0.56 3.64Q4.71 3.75 5.77 2.13L5.77 2.13Q6.12 1.57 6.12 0.80L6.12 0.80Q6.12-1.98 3.30-3.39L3.30-3.39Q1.55-4.23-0.67-4.23L-0.67-4.23Q-4.71-4.23-6.86-1.31L-6.86-1.31Q-8.37 0.76-8.37 3.72L-8.37 3.72Q-8.37 8.53-4.82 10.61L-4.82 10.61Q-2.92 11.66-0.56 11.66L-0.56 11.66Q3.45 11.66 5.24 8.81L5.24 8.81Q5.55 8.29 5.77 7.76ZM31.75 5.54L31.75 5.54Q31.75 2.56 28.44 0.52L28.44 0.52Q27.95 0.23 24.64-1.38L24.64-1.38Q21.62-2.89 20.88-4.34L20.88-4.34Q20.50-5.11 20.50-5.92L20.50-5.92Q20.50-8.03 22.54-8.80L22.54-8.80Q23.34-9.12 24.26-9.12L24.26-9.12Q27.14-9.12 28.62-7.04L28.62-7.04Q29.60-5.64 29.60-3.70L29.60-3.70L30.87-3.70L30.87-10.00Q29.88-10.00 29.74-9.33L29.74-9.33Q29.71-9.08 29.71-8.77L29.71-8.77Q26.93-10.14 23.73-10.14L23.73-10.14Q19.65-10.14 17.51-7.96L17.51-7.96Q16.10-6.52 16.10-4.55L16.10-4.55Q16.10-1.59 19.41 0.41L19.41 0.41Q19.93 0.69 23.27 2.34L23.27 2.34Q26.37 3.86 27.11 5.33L27.11 5.33Q27.49 6.07 27.49 6.88L27.49 6.88Q27.49 9.34 25.21 10.25L25.21 10.25Q24.29 10.64 23.17 10.64L23.17 10.64Q18.98 10.64 17.65 6.53L17.65 6.53Q17.30 5.37 17.19 4.00L17.19 4.00L15.93 4.00L15.93 11.38Q16.80 11.38 16.98 10.85L16.98 10.85Q17.05 10.54 17.05 9.87L17.05 9.87Q19.79 11.66 23.48 11.66L23.48 11.66Q27.81 11.66 30.13 9.41L30.13 9.41Q31.75 7.83 31.75 5.54ZM38.71 3.72L38.71 3.72Q38.71-1.63 40.61-2.86L40.61-2.86Q41.38-3.32 42.40-3.32L42.40-3.32Q45.07-3.32 45.77-0.29L45.77-0.29Q46.12 1.18 46.12 3.57L46.12 3.57Q46.12 9.23 43.98 10.39L43.98 10.39Q43.28 10.75 42.40 10.75L42.40 10.75Q39.76 10.75 39.06 7.72L39.06 7.72Q38.71 6.21 38.71 3.72ZM42.54-4.23L42.54-4.23Q38.53-4.23 36.21-1.49L36.21-1.49Q34.45 0.62 34.45 3.57L34.45 3.57Q34.45 7.65 37.34 9.97L37.34 9.97Q39.45 11.66 42.29 11.66L42.29 11.66Q46.20 11.66 48.52 8.85L48.52 8.85Q50.34 6.63 50.34 3.57L50.34 3.57Q50.34-0.54 47.39-2.72L47.39-2.72Q45.35-4.23 42.54-4.23ZM60.61 10.39L60.61 10.39L58.82 10.39L58.82-11.54L52.24-11.54L52.24-10.63L54.95-10.63L54.95 8.43Q54.95 9.94 53.89 10.25L53.89 10.25Q53.37 10.39 52.24 10.39L52.24 10.39L52.24 11.31L61.49 11.31Q61.49 10.54 61.03 10.43L61.03 10.43Q60.82 10.39 60.61 10.39ZM80.40 10.39L80.40 10.39L79.03 10.39L79.03-3.74L73.05-3.74L73.05-2.86L75.16-2.86L75.13 5.61Q74.95 8.43 73.09 9.55L73.09 9.55Q72.39 9.94 71.68 9.94L71.68 9.94Q69.36 9.94 69.01 7.30L69.01 7.30Q68.94 6.84 68.94 6.39L68.94 6.39L68.94-3.74L62.82-3.74L62.82-2.86L65.07-2.86L65.07 5.82Q65.11 11.63 70.10 11.66L70.10 11.66Q72.95 11.66 74.64 9.27L74.64 9.27Q74.99 8.74 75.23 8.22L75.23 8.22L75.41 11.31L81.25 11.31Q81.25 10.50 80.79 10.43L80.79 10.43Q80.61 10.39 80.40 10.39ZM82.65-3.63L82.65-2.72L85.08-2.72L85.08 6.42Q85.39 11.52 89.82 11.70L89.82 11.70Q92.60 11.70 93.59 9.48L93.59 9.48Q93.94 8.71 94.15 7.62L94.15 7.62L93.20 7.48Q92.43 10.61 90.70 10.64L90.70 10.64Q89.23 10.64 88.98 8.64L88.98 8.64Q88.95 8.29 88.95 7.93L88.95 7.93L88.95-2.72L93.87-2.72L93.87-3.63L88.95-3.63L88.95-7.71L85.08-6.97L85.08-3.63L82.65-3.63ZM102.87 10.39L102.87 10.39L101.43 10.39L101.43-3.74L95.27-3.74L95.27-2.86L97.56-2.86L97.56 8.50Q97.56 10.01 96.40 10.29L96.40 10.29Q95.98 10.39 95.27 10.39L95.27 10.39L95.27 11.31L103.71 11.31Q103.71 10.50 103.18 10.43L103.18 10.43Q103.04 10.39 102.87 10.39ZM101.78-8.52L101.78-8.52Q101.78-9.96 100.48-10.66L100.48-10.66Q99.95-10.94 99.39-10.94L99.39-10.94Q97.95-10.94 97.28-9.64L97.28-9.64Q97.00-9.08 97.00-8.52L97.00-8.52Q97.00-7.04 98.30-6.41L98.30-6.41Q98.82-6.16 99.39-6.16L99.39-6.16Q100.83-6.16 101.50-7.39L101.50-7.39Q101.78-7.92 101.78-8.52ZM109.97 3.72L109.97 3.72Q109.97-1.63 111.87-2.86L111.87-2.86Q112.64-3.32 113.66-3.32L113.66-3.32Q116.33-3.32 117.04-0.29L117.04-0.29Q117.39 1.18 117.39 3.57L117.39 3.57Q117.39 9.23 115.24 10.39L115.24 10.39Q114.54 10.75 113.66 10.75L113.66 10.75Q111.02 10.75 110.32 7.72L110.32 7.72Q109.97 6.21 109.97 3.72ZM113.80-4.23L113.80-4.23Q109.79-4.23 107.47-1.49L107.47-1.49Q105.71 0.62 105.71 3.57L105.71 3.57Q105.71 7.65 108.60 9.97L108.60 9.97Q110.71 11.66 113.55 11.66L113.55 11.66Q117.46 11.66 119.78 8.85L119.78 8.85Q121.61 6.63 121.61 3.57L121.61 3.57Q121.61-0.54 118.65-2.72L118.65-2.72Q116.61-4.23 113.80-4.23ZM130.78 10.39L130.78 10.39L129.69 10.39L129.73 1.71Q129.97-1.10 131.84-2.16L131.84-2.16Q132.50-2.51 133.17-2.51L133.17-2.51Q135.14-2.51 135.67-0.43L135.67-0.43Q135.84 0.20 135.84 0.97L135.84 0.97L135.84 8.50Q135.84 9.97 135.04 10.25L135.04 10.25Q134.65 10.39 133.91 10.39L133.91 10.39L133.91 11.31L141.96 11.31Q141.96 10.54 141.50 10.43L141.50 10.43Q141.29 10.39 141.08 10.39L141.08 10.39L139.71 10.39L139.71 1.50Q139.71-2.65 136.83-3.84L136.83-3.84Q135.91-4.23 134.86-4.23L134.86-4.23Q132.33-4.23 130.57-2.23L130.57-2.23Q130.01-1.56 129.66-0.82L129.66-0.82L129.48-3.74L123.57-3.74L123.57-2.86L125.82-2.86L125.82 8.50Q125.82 10.04 124.66 10.29L124.66 10.29Q124.21 10.39 123.57 10.39L123.57 10.39L123.57 11.31L131.66 11.31Q131.66 10.54 131.20 10.43L131.20 10.43Q130.99 10.39 130.78 10.39ZM149.41 10.68L149.41 10.68Q151.77 10.68 152.33 9.09L152.33 9.09Q152.44 8.74 152.44 8.39L152.44 8.39Q152.44 6.70 150.22 5.54L150.22 5.54Q149.73 5.30 148.68 4.84L148.68 4.84Q145.97 3.64 145.05 2.66L145.05 2.66Q144.11 1.54 144.11 0.06L144.11 0.06Q144.11-2.72 147.13-3.77L147.13-3.77Q148.46-4.23 150.12-4.23L150.12-4.23Q152.68-4.23 154.34-3.25L154.34-3.25Q154.34-4.30 154.90-4.41L154.90-4.41Q155.07-4.44 155.25-4.44L155.25-4.44L155.25-0.05L154.20-0.05Q154.05-3.25 150.68-3.28L150.68-3.28Q148.32-3.28 147.76-1.80L147.76-1.80Q147.62-1.42 147.62-1.03L147.62-1.03Q147.62 0.45 149.73 1.54L149.73 1.54Q150.19 1.75 151.21 2.20L151.21 2.20Q153.98 3.40 154.90 4.42L154.90 4.42Q155.95 5.61 155.95 7.23L155.95 7.23Q155.95 10.22 152.86 11.24L152.86 11.24Q151.59 11.66 150.05 11.66L150.05 11.66Q147.09 11.66 145.09 10.50L145.09 10.50Q145.09 11.41 144.63 11.56L144.63 11.56Q144.42 11.59 144.14 11.59L144.14 11.59L144.14 6.25L145.27 6.25Q145.34 10.64 149.41 10.68Z"/></g>
<g transform="matrix(18.5961 0 0 18.5961 428.2194 412.053)" id="15398">
<path style="stroke: none; stroke-width: 1; stroke-dasharray: none; stroke-linecap: butt; stroke-dashoffset: 0; stroke-linejoin: miter; stroke-miterlimit: 4; is-custom-font: none; font-file-url: none; fill: rgb(255,255,255); fill-rule: nonzero; opacity: 1;" vector-effect="non-scaling-stroke" transform=" translate(-12.0006, -12)" d="M 13.557 6.176 c -0.221 -0.281 -0.577 -0.473 -0.867 -0.556 c 0.019 -0.081 -0.007 -0.158 -0.017 -0.249 c -0.013 -0.116 -0.173 -0.423 -0.745 -0.403 c -0.528 0.017 -0.824 0.054 -1.058 0.43 c -0.075 0.121 -0.09 0.212 -0.066 0.286 c -0.197 0.083 -0.625 0.289 -0.75 0.566 c -0.148 0.328 -0.079 0.678 0.167 0.851 c 0.232 0.163 0.438 0.158 0.679 0.122 a 3.41 3.41 0 0 0 -0.079 0.747 c 0 0.311 0.054 0.508 0.171 0.621 c 0.075 0.073 0.176 0.11 0.301 0.11 h 0.022 a 0.68 0.68 0 0 0 0.561 -0.287 a 0.555 0.555 0 0 0 0.507 0.286 c 0.35 0 0.542 -0.212 0.542 -0.598 c 0 -0.062 -0.033 -0.609 -0.06 -0.837 c 0.042 0.004 0.085 0.007 0.129 0.007 a 0.9 0.9 0 0 0 0.485 -0.134 a 0.519 0.519 0 0 0 0.23 -0.361 a 0.76 0.76 0 0 0 -0.152 -0.601 z m -2.248 2.382 c -0.096 0.004 -0.168 -0.02 -0.22 -0.069 c -0.086 -0.083 -0.127 -0.253 -0.127 -0.52 c 0 -0.383 0.063 -0.67 0.089 -0.772 c 0.129 -0.024 0.244 -0.066 0.354 -0.108 c 0.148 -0.055 0.288 -0.107 0.445 -0.108 c -0.013 0.157 -0.039 0.563 -0.039 1.254 c -0.018 0.052 -0.129 0.31 -0.502 0.323 z m 1.476 -0.456 c 0 0.308 -0.131 0.457 -0.401 0.457 a 0.423 0.423 0 0 1 -0.431 -0.332 c 0 -0.674 0.026 -1.079 0.039 -1.234 c 0.135 0.023 0.26 0.078 0.382 0.13 c 0.118 0.051 0.229 0.099 0.345 0.121 h 0.004 c 0.015 0.129 0.062 0.7 0.062 0.858 z m 0.787 -1.35 a 0.382 0.382 0 0 1 -0.165 0.266 c -0.186 0.114 -0.378 0.139 -0.664 0.087 c -0.101 -0.018 -0.204 -0.063 -0.314 -0.111 c -0.166 -0.071 -0.353 -0.153 -0.568 -0.155 c -0.188 0 -0.35 0.06 -0.506 0.118 a 1.85 1.85 0 0 1 -0.348 0.105 c -0.315 0.054 -0.49 0.075 -0.706 -0.077 c -0.16 -0.113 -0.253 -0.382 -0.12 -0.677 c 0.11 -0.244 0.542 -0.439 0.706 -0.506 c 0.077 0.065 0.191 0.115 0.311 0.166 c 0.296 0.124 0.667 0.213 1.125 -0.02 c 0.148 -0.075 0.24 -0.141 0.295 -0.201 c 0.265 0.068 0.618 0.25 0.828 0.516 a 0.625 0.625 0 0 1 0.126 0.489 z M 8.907 5.876 c -1.27 0 -2.303 -0.996 -2.303 -2.221 c 0 -1.201 1.062 -2.215 2.318 -2.215 c 1.295 0 2.272 0.948 2.272 2.205 c 0.001 1.272 -0.983 2.231 -2.287 2.231 z m 0.015 -4.294 c -1.18 0 -2.177 0.95 -2.177 2.074 c 0 1.147 0.97 2.08 2.162 2.08 c 1.224 0 2.146 -0.898 2.146 -2.09 c 0.001 -1.177 -0.915 -2.064 -2.131 -2.064 z M 7.776 3.068 c -0.458 0 -0.802 0.247 -0.802 0.723 s 0.375 0.709 0.728 0.709 c 0.308 0 0.78 -0.229 0.78 -0.709 a 0.71 0.71 0 0 0 -0.706 -0.723 z m 0.346 1.121 c -0.083 0 -0.222 -0.02 -0.222 -0.2 c 0 -0.181 0.165 -0.205 0.218 -0.205 c 0.117 0 0.191 0.077 0.191 0.193 s -0.104 0.212 -0.187 0.212 z M 14.512 5.652 c -1.28 0 -2.283 -0.977 -2.283 -2.224 c 0 -1.205 1.045 -2.224 2.283 -2.224 c 1.123 0 2.316 0.778 2.316 2.221 c 0 1.312 -0.952 2.227 -2.316 2.227 z m 0 -4.306 c -1.161 0 -2.142 0.954 -2.142 2.083 c 0 1.188 0.921 2.083 2.142 2.083 c 1.281 0 2.176 -0.858 2.176 -2.086 c 0 -1.351 -1.122 -2.08 -2.176 -2.08 z M 13.388 2.853 c -0.428 0 -0.777 0.235 -0.777 0.724 c 0 0.515 0.403 0.729 0.743 0.729 c 0.396 0 0.744 -0.319 0.744 -0.693 a 0.736 0.736 0 0 0 -0.71 -0.76 z m 0.344 1.154 c -0.122 0 -0.197 -0.105 -0.197 -0.214 s 0.1 -0.214 0.197 -0.214 c 0.109 0 0.205 0.101 0.205 0.21 c 0.001 0.109 -0.083 0.218 -0.205 0.218 z M 20.529 11.982 c -0.259 -0.195 -0.927 -0.366 -1.102 -0.387 a 0.73 0.73 0 0 0 -0.174 -0.002 a 61.738 61.738 0 0 1 -0.026 -2.977 c 0.003 -0.274 0.005 -0.528 0.005 -0.765 c 0 -0.915 -0.078 -2.278 -0.445 -3.609 c 0.295 -0.128 1.186 -0.6 1.186 -1.579 c 0 -0.161 -0.032 -0.983 -0.681 -1.397 c -0.958 -0.613 -1.972 -0.088 -2.239 0.073 C 15.996 0.464 14.434 0 12.515 0 c -2.392 0 -4.5 0.476 -5.782 1.306 a 2.578 2.578 0 0 0 -0.4 0.327 c -0.245 -0.148 -1.076 -0.566 -2.02 -0.112 a 1.483 1.483 0 0 0 -0.792 0.882 c -0.187 0.547 -0.055 1.104 0.037 1.288 c 0.326 0.648 0.956 0.865 1.192 0.925 c -0.232 1.044 -0.315 2.317 -0.315 2.925 c 0 0.938 0.1 1.715 0.196 2.467 c 0.08 0.625 0.155 1.221 0.159 1.835 a 1.927 1.927 0 0 0 -0.212 0.002 c -0.17 0.01 -0.896 0.188 -1.26 0.509 a 0.558 0.558 0 0 0 -0.174 0.403 c 0 0.142 0.088 0.319 0.184 0.382 c 0.059 0.165 0.189 0.354 0.351 0.403 a 0.45 0.45 0 0 0 0.141 0.021 c 0.238 0 0.475 -0.15 0.527 -0.186 c 0.081 -0.055 0.264 -0.191 0.397 -0.293 a 84.632 84.632 0 0 0 -0.089 3.94 v 0.54 c -0.001 0.646 -0.002 1.38 0.037 1.793 c 0.074 0.785 0.845 2.053 1.594 2.648 c -0.172 0.092 -0.469 0.267 -0.665 0.465 c -0.298 0.301 -0.404 0.61 -0.404 0.799 c 0 0.204 0.142 0.455 0.348 0.51 c 0.154 0.179 0.327 0.217 0.538 0.218 c 0.01 0.001 0.03 0.003 0.057 0.003 a 0.632 0.632 0 0 0 0.295 -0.073 c 0.097 -0.053 0.285 -0.226 0.467 -0.392 c 0.126 -0.115 0.246 -0.225 0.304 -0.266 c 0.146 -0.102 0.357 -0.209 0.5 -0.217 a 0.333 0.333 0 0 0 0.134 -0.029 c 0.77 0.357 1.857 0.646 3.576 0.646 c 1.946 0 3.527 -0.187 4.949 -0.978 c 0.064 0.029 0.168 0.076 0.286 0.138 c 0.248 0.128 0.623 0.629 0.708 0.771 c 0.1 0.166 0.339 0.296 0.544 0.296 c 0.202 0 0.316 -0.046 0.442 -0.179 l 0.051 -0.018 c 0.101 -0.033 0.178 -0.072 0.26 -0.275 c 0.006 -0.018 0.146 -0.441 -0.082 -0.788 c -0.229 -0.347 -0.406 -0.591 -0.773 -0.804 a 1.769 1.769 0 0 0 -0.141 -0.076 c 1.713 -1.618 1.764 -5.014 1.764 -5.402 c 0 -1.264 -0.053 -2.177 -0.109 -3.144 a 30.884 30.884 0 0 1 -0.02 -0.33 a 0.916 0.916 0 0 1 0.211 0.147 c 0.137 0.125 0.39 0.273 0.525 0.289 l 0.023 0.002 a 0.948 0.948 0 0 0 0.136 0.011 c 0.16 0 0.345 -0.06 0.465 -0.392 a 0.45 0.45 0 0 0 0.182 -0.378 c -0.001 -0.263 -0.068 -0.382 -0.328 -0.577 z M 19.178 1.446 c 0.556 0.355 0.584 1.078 0.584 1.219 c 0 0.831 -0.756 1.249 -1.034 1.375 a 6.792 6.792 0 0 0 -0.378 -0.916 c 0.166 -0.148 0.503 -0.507 0.223 -0.788 c -0.248 -0.247 -0.555 -0.134 -0.705 -0.054 a 4.41 4.41 0 0 0 -0.646 -0.793 c 0.307 -0.169 1.167 -0.548 1.956 -0.043 z M 3.747 3.596 c -0.076 -0.152 -0.189 -0.646 -0.026 -1.125 a 1.28 1.28 0 0 1 0.685 -0.759 c 0.792 -0.381 1.517 -0.064 1.776 0.079 a 5.446 5.446 0 0 0 -0.632 0.877 c -0.161 -0.084 -0.541 -0.23 -0.713 0.148 c -0.166 0.365 0.143 0.58 0.292 0.659 l -0.079 0.173 c -0.097 0.218 -0.18 0.478 -0.251 0.762 c -0.205 -0.055 -0.768 -0.249 -1.052 -0.814 z m 1.036 8.64 l -0.031 0.665 c -0.121 0.092 -0.386 0.293 -0.484 0.359 c -0.148 0.1 -0.381 0.198 -0.548 0.147 c -0.09 -0.027 -0.195 -0.151 -0.251 -0.294 c 0.128 -0.104 0.247 -0.181 0.352 -0.228 l -0.057 -0.129 a 1.73 1.73 0 0 0 -0.381 0.246 a 0.423 0.423 0 0 1 -0.098 -0.246 a 0.42 0.42 0 0 1 0.127 -0.297 c 0.34 -0.3 1.035 -0.466 1.175 -0.474 c 0.091 -0.005 0.157 -0.004 0.204 -0.001 c -0.002 0.083 -0.004 0.167 -0.008 0.252 z m 2.936 10.676 c -0.182 0.01 -0.422 0.137 -0.573 0.242 a 4.056 4.056 0 0 0 -0.319 0.278 c -0.16 0.146 -0.358 0.326 -0.44 0.371 c -0.131 0.072 -0.268 0.055 -0.269 0.055 l -0.01 -0.002 c -0.209 0 -0.325 -0.042 -0.43 -0.161 c 0.058 -0.313 0.489 -0.784 0.493 -0.789 l -0.104 -0.096 c -0.019 0.021 -0.423 0.462 -0.517 0.812 a 0.443 0.443 0 0 1 -0.193 -0.352 c 0 -0.16 0.096 -0.43 0.364 -0.7 c 0.245 -0.247 0.68 -0.466 0.751 -0.501 c 0.317 -0.037 0.568 0.021 0.748 0.174 c 0.192 0.164 0.464 0.535 0.555 0.664 c -0.013 0.001 -0.031 0.004 -0.056 0.005 z m 10.757 -0.199 c 0.189 0.289 0.067 0.662 0.067 0.662 c -0.062 0.152 -0.102 0.168 -0.168 0.189 c -0.083 -0.352 -0.255 -0.686 -0.385 -0.835 l -0.107 0.093 c 0.107 0.121 0.286 0.451 0.363 0.814 c -0.091 0.09 -0.17 0.117 -0.323 0.117 a 0.551 0.551 0 0 1 -0.423 -0.227 c -0.076 -0.127 -0.476 -0.674 -0.764 -0.823 a 4.658 4.658 0 0 0 -0.247 -0.12 c 0.151 -0.111 0.286 -0.245 0.409 -0.366 a 4.16 4.16 0 0 1 0.205 -0.194 a 0.98 0.98 0 0 1 0.408 -0.189 c 0.033 0.014 0.119 0.05 0.238 0.119 c 0.341 0.198 0.509 0.43 0.727 0.76 z m -1.029 -1.031 l -0.037 0.033 a 1.04 1.04 0 0 0 -0.396 0.201 a 3.702 3.702 0 0 0 -0.215 0.201 c -0.072 0.072 -0.15 0.148 -0.232 0.222 c -1.459 0.913 -3.09 1.118 -5.13 1.118 c -1.741 0 -2.817 -0.301 -3.57 -0.666 c -0.111 -0.154 -0.363 -0.492 -0.555 -0.656 c -0.196 -0.168 -0.46 -0.238 -0.785 -0.213 l -0.013 -0.009 c -0.727 -0.517 -1.54 -1.816 -1.611 -2.575 c -0.038 -0.403 -0.037 -1.131 -0.036 -1.773 v -0.541 a 92.161 92.161 0 0 1 0.128 -4.777 c 0.038 -0.775 -0.055 -1.5 -0.153 -2.266 c -0.096 -0.745 -0.194 -1.516 -0.194 -2.44 c 0 -0.994 0.189 -2.891 0.597 -3.806 c 0.495 -1.113 1.05 -1.892 1.605 -2.251 C 8.099 0.676 10.165 0.212 12.517 0.212 c 1.946 0 3.512 0.484 4.53 1.399 c 0.646 0.583 1.294 1.819 1.523 2.63 c 0.375 1.326 0.453 2.696 0.453 3.611 c 0 0.236 -0.002 0.489 -0.006 0.763 a 58.336 58.336 0 0 0 0.079 4.125 l 0.028 0.482 c 0.056 0.963 0.108 1.873 0.108 3.131 c -0.001 0.385 -0.05 3.809 -1.785 5.329 z m 3.18 -8.888 c -0.134 -0.133 -0.391 -0.238 -0.424 -0.251 l -0.053 0.131 c 0.114 0.045 0.307 0.144 0.387 0.231 c -0.117 0.313 -0.284 0.293 -0.446 0.274 l -0.025 -0.003 c -0.086 -0.01 -0.308 -0.127 -0.444 -0.252 a 0.93 0.93 0 0 0 -0.315 -0.201 c -0.02 -0.348 -0.034 -0.676 -0.046 -0.988 a 0.575 0.575 0 0 1 0.151 0 c 0.171 0.021 0.808 0.19 1.034 0.36 c 0.225 0.169 0.271 0.247 0.271 0.464 a 0.325 0.325 0 0 1 -0.09 0.235 z" stroke-linecap="round"/>
</g>
</svg>