<svg xmlns="http://www.w3.org/2000/svg" xmlns:xlink="http://www.w3.org/1999/xlink" version="1.1" width="1000" height="1000" viewBox="0 0 1000 1000" xml:space="preserve">
<desc>Created with Fabric.js 3.5.0</desc>
<defs>
</defs>
<rect x="0" y="0" width="100%" height="100%" fill="rgba(255,255,255,0)"/>
<g transform="matrix(37.2779 0 0 37.2779 425.3754 412.0533)" id="607904">
<path style="stroke: none; stroke-width: 0; stroke-dasharray: none; stroke-linecap: butt; stroke-dashoffset: 0; stroke-linejoin: miter; stroke-miterlimit: 4; is-custom-font: none; font-file-url: none; fill: rgb(57,112,228); fill-rule: nonzero; opacity: 1;" vector-effect="non-scaling-stroke" transform=" translate(-12, -12.1153)" d="M 11.1142 1.43752 C 11.6726 1.16175 12.3274 1.16175 12.8858 1.43752 L 19.9628 4.9333 C 20.5056 5.20144 20.8978 5.70105 21.0293 6.29205 L 22.7955 14.2294 C 22.925 14.8114 22.7882 15.4208 22.4222 15.8914 L 17.496 22.2276 C 17.1171 22.7149 16.5344 23 15.9171 23 H 8.08294 C 7.46563 23 6.88291 22.7149 6.504 22.2276 L 1.57778 15.8914 C 1.21185 15.4208 1.07497 14.8114 1.20446 14.2294 L 2.9707 6.29205 C 3.10221 5.70105 3.49436 5.20144 4.0372 4.9333 L 11.1142 1.43752 Z" stroke-linecap="round"/>
</g>
<g transform="matrix(19.8767 0 0 19.8767 425.8548 412.0529)" id="495772">
<path style="stroke: none; stroke-width: 1; stroke-dasharray: none; stroke-linecap: butt; stroke-dashoffset: 0; stroke-linejoin: miter; stroke-miterlimit: 4; is-custom-font: none; font-file-url: none; fill: rgb(255,255,255); fill-rule: nonzero; opacity: 1;" vector-effect="non-scaling-stroke" transform=" translate(-12.0006, -12)" d="M 13.557 6.176 c -0.221 -0.281 -0.577 -0.473 -0.867 -0.556 c 0.019 -0.081 -0.007 -0.158 -0.017 -0.249 c -0.013 -0.116 -0.173 -0.423 -0.745 -0.403 c -0.528 0.017 -0.824 0.054 -1.058 0.43 c -0.075 0.121 -0.09 0.212 -0.066 0.286 c -0.197 0.083 -0.625 0.289 -0.75 0.566 c -0.148 0.328 -0.079 0.678 0.167 0.851 c 0.232 0.163 0.438 0.158 0.679 0.122 a 3.41 3.41 0 0 0 -0.079 0.747 c 0 0.311 0.054 0.508 0.171 0.621 c 0.075 0.073 0.176 0.11 0.301 0.11 h 0.022 a 0.68 0.68 0 0 0 0.561 -0.287 a 0.555 0.555 0 0 0 0.507 0.286 c 0.35 0 0.542 -0.212 0.542 -0.598 c 0 -0.062 -0.033 -0.609 -0.06 -0.837 c 0.042 0.004 0.085 0.007 0.129 0.007 a 0.9 0.9 0 0 0 0.485 -0.134 a 0.519 0.519 0 0 0 0.23 -0.361 a 0.76 0.76 0 0 0 -0.152 -0.601 z m -2.248 2.382 c -0.096 0.004 -0.168 -0.02 -0.22 -0.069 c -0.086 -0.083 -0.127 -0.253 -0.127 -0.52 c 0 -0.383 0.063 -0.67 0.089 -0.772 c 0.129 -0.024 0.244 -0.066 0.354 -0.108 c 0.148 -0.055 0.288 -0.107 0.445 -0.108 c -0.013 0.157 -0.039 0.563 -0.039 1.254 c -0.018 0.052 -0.129 0.31 -0.502 0.323 z m 1.476 -0.456 c 0 0.308 -0.131 0.457 -0.401 0.457 a 0.423 0.423 0 0 1 -0.431 -0.332 c 0 -0.674 0.026 -1.079 0.039 -1.234 c 0.135 0.023 0.26 0.078 0.382 0.13 c 0.118 0.051 0.229 0.099 0.345 0.121 h 0.004 c 0.015 0.129 0.062 0.7 0.062 0.858 z m 0.787 -1.35 a 0.382 0.382 0 0 1 -0.165 0.266 c -0.186 0.114 -0.378 0.139 -0.664 0.087 c -0.101 -0.018 -0.204 -0.063 -0.314 -0.111 c -0.166 -0.071 -0.353 -0.153 -0.568 -0.155 c -0.188 0 -0.35 0.06 -0.506 0.118 a 1.85 1.85 0 0 1 -0.348 0.105 c -0.315 0.054 -0.49 0.075 -0.706 -0.077 c -0.16 -0.113 -0.253 -0.382 -0.12 -0.677 c 0.11 -0.244 0.542 -0.439 0.706 -0.506 c 0.077 0.065 0.191 0.115 0.311 0.166 c 0.296 0.124 0.667 0.213 1.125 -0.02 c 0.148 -0.075 0.24 -0.141 0.295 -0.201 c 0.265 0.068 0.618 0.25 0.828 0.516 a 0.625 0.625 0 0 1 0.126 0.489 z M 8.907 5.876 c -1.27 0 -2.303 -0.996 -2.303 -2.221 c 0 -1.201 1.062 -2.215 2.318 -2.215 c 1.295 0 2.272 0.948 2.272 2.205 c 0.001 1.272 -0.983 2.231 -2.287 2.231 z m 0.015 -4.294 c -1.18 0 -2.177 0.95 -2.177 2.074 c 0 1.147 0.97 2.08 2.162 2.08 c 1.224 0 2.146 -0.898 2.146 -2.09 c 0.001 -1.177 -0.915 -2.064 -2.131 -2.064 z M 7.776 3.068 c -0.458 0 -0.802 0.247 -0.802 0.723 s 0.375 0.709 0.728 0.709 c 0.308 0 0.78 -0.229 0.78 -0.709 a 0.71 0.71 0 0 0 -0.706 -0.723 z m 0.346 1.121 c -0.083 0 -0.222 -0.02 -0.222 -0.2 c 0 -0.181 0.165 -0.205 0.218 -0.205 c 0.117 0 0.191 0.077 0.191 0.193 s -0.104 0.212 -0.187 0.212 z M 14.512 5.652 c -1.28 0 -2.283 -0.977 -2.283 -2.224 c 0 -1.205 1.045 -2.224 2.283 -2.224 c 1.123 0 2.316 0.778 2.316 2.221 c 0 1.312 -0.952 2.227 -2.316 2.227 z m 0 -4.306 c -1.161 0 -2.142 0.954 -2.142 2.083 c 0 1.188 0.921 2.083 2.142 2.083 c 1.281 0 2.176 -0.858 2.176 -2.086 c 0 -1.351 -1.122 -2.08 -2.176 -2.08 z M 13.388 2.853 c -0.428 0 -0.777 0.235 -0.777 0.724 c 0 0.515 0.403 0.729 0.743 0.729 c 0.396 0 0.744 -0.319 0.744 -0.693 a 0.736 0.736 0 0 0 -0.71 -0.76 z m 0.344 1.154 c -0.122 0 -0.197 -0.105 -0.197 -0.214 s 0.1 -0.214 0.197 -0.214 c 0.109 0 0.205 0.101 0.205 0.21 c 0.001 0.109 -0.083 0.218 -0.205 0.218 z M 20.529 11.982 c -0.259 -0.195 -0.927 -0.366 -1.102 -0.387 a 0.73 0.73 0 0 0 -0.174 -0.002 a 61.738 61.738 0 0 1 -0.026 -2.977 c 0.003 -0.274 0.005 -0.528 0.005 -0.765 c 0 -0.915 -0.078 -2.278 -0.445 -3.609 c 0.295 -0.128 1.186 -0.6 1.186 -1.579 c 0 -0.161 -0.032 -0.983 -0.681 -1.397 c -0.958 -0.613 -1.972 -0.088 -2.239 0.073 C 15.996 0.464 14.434 0 12.515 0 c -2.392 0 -4.5 0.476 -5.782 1.306 a 2.578 2.578 0 0 0 -0.4 0.327 c -0.245 -0.148 -1.076 -0.566 -2.02 -0.112 a 1.483 1.483 0 0 0 -0.792 0.882 c -0.187 0.547 -0.055 1.104 0.037 1.288 c 0.326 0.648 0.956 0.865 1.192 0.925 c -0.232 1.044 -0.315 2.317 -0.315 2.925 c 0 0.938 0.1 1.715 0.196 2.467 c 0.08 0.625 0.155 1.221 0.159 1.835 a 1.927 1.927 0 0 0 -0.212 0.002 c -0.17 0.01 -0.896 0.188 -1.26 0.509 a 0.558 0.558 0 0 0 -0.174 0.403 c 0 0.142 0.088 0.319 0.184 0.382 c 0.059 0.165 0.189 0.354 0.351 0.403 a 0.45 0.45 0 0 0 0.141 0.021 c 0.238 0 0.475 -0.15 0.527 -0.186 c 0.081 -0.055 0.264 -0.191 0.397 -0.293 a 84.632 84.632 0 0 0 -0.089 3.94 v 0.54 c -0.001 0.646 -0.002 1.38 0.037 1.793 c 0.074 0.785 0.845 2.053 1.594 2.648 c -0.172 0.092 -0.469 0.267 -0.665 0.465 c -0.298 0.301 -0.404 0.61 -0.404 0.799 c 0 0.204 0.142 0.455 0.348 0.51 c 0.154 0.179 0.327 0.217 0.538 0.218 c 0.01 0.001 0.03 0.003 0.057 0.003 a 0.632 0.632 0 0 0 0.295 -0.073 c 0.097 -0.053 0.285 -0.226 0.467 -0.392 c 0.126 -0.115 0.246 -0.225 0.304 -0.266 c 0.146 -0.102 0.357 -0.209 0.5 -0.217 a 0.333 0.333 0 0 0 0.134 -0.029 c 0.77 0.357 1.857 0.646 3.576 0.646 c 1.946 0 3.527 -0.187 4.949 -0.978 c 0.064 0.029 0.168 0.076 0.286 0.138 c 0.248 0.128 0.623 0.629 0.708 0.771 c 0.1 0.166 0.339 0.296 0.544 0.296 c 0.202 0 0.316 -0.046 0.442 -0.179 l 0.051 -0.018 c 0.101 -0.033 0.178 -0.072 0.26 -0.275 c 0.006 -0.018 0.146 -0.441 -0.082 -0.788 c -0.229 -0.347 -0.406 -0.591 -0.773 -0.804 a 1.769 1.769 0 0 0 -0.141 -0.076 c 1.713 -1.618 1.764 -5.014 1.764 -5.402 c 0 -1.264 -0.053 -2.177 -0.109 -3.144 a 30.884 30.884 0 0 1 -0.02 -0.33 a 0.916 0.916 0 0 1 0.211 0.147 c 0.137 0.125 0.39 0.273 0.525 0.289 l 0.023 0.002 a 0.948 0.948 0 0 0 0.136 0.011 c 0.16 0 0.345 -0.06 0.465 -0.392 a 0.45 0.45 0 0 0 0.182 -0.378 c -0.001 -0.263 -0.068 -0.382 -0.328 -0.577 z M 19.178 1.446 c 0.556 0.355 0.584 1.078 0.584 1.219 c 0 0.831 -0.756 1.249 -1.034 1.375 a 6.792 6.792 0 0 0 -0.378 -0.916 c 0.166 -0.148 0.503 -0.507 0.223 -0.788 c -0.248 -0.247 -0.555 -0.134 -0.705 -0.054 a 4.41 4.41 0 0 0 -0.646 -0.793 c 0.307 -0.169 1.167 -0.548 1.956 -0.043 z M 3.747 3.596 c -0.076 -0.152 -0.189 -0.646 -0.026 -1.125 a 1.28 1.28 0 0 1 0.685 -0.759 c 0.792 -0.381 1.517 -0.064 1.776 0.079 a 5.446 5.446 0 0 0 -0.632 0.877 c -0.161 -0.084 -0.541 -0.23 -0.713 0.148 c -0.166 0.365 0.143 0.58 0.292 0.659 l -0.079 0.173 c -0.097 0.218 -0.18 0.478 -0.251 0.762 c -0.205 -0.055 -0.768 -0.249 -1.052 -0.814 z m 1.036 8.64 l -0.031 0.665 c -0.121 0.092 -0.386 0.293 -0.484 0.359 c -0.148 0.1 -0.381 0.198 -0.548 0.147 c -0.09 -0.027 -0.195 -0.151 -0.251 -0.294 c 0.128 -0.104 0.247 -0.181 0.352 -0.228 l -0.057 -0.129 a 1.73 1.73 0 0 0 -0.381 0.246 a 0.423 0.423 0 0 1 -0.098 -0.246 a 0.42 0.42 0 0 1 0.127 -0.297 c 0.34 -0.3 1.035 -0.466 1.175 -0.474 c 0.091 -0.005 0.157 -0.004 0.204 -0.001 c -0.002 0.083 -0.004 0.167 -0.008 0.252 z m 2.936 10.676 c -0.182 0.01 -0.422 0.137 -0.573 0.242 a 4.056 4.056 0 0 0 -0.319 0.278 c -0.16 0.146 -0.358 0.326 -0.44 0.371 c -0.131 0.072 -0.268 0.055 -0.269 0.055 l -0.01 -0.002 c -0.209 0 -0.325 -0.042 -0.43 -0.161 c 0.058 -0.313 0.489 -0.784 0.493 -0.789 l -0.104 -0.096 c -0.019 0.021 -0.423 0.462 -0.517 0.812 a 0.443 0.443 0 0 1 -0.193 -0.352 c 0 -0.16 0.096 -0.43 0.364 -0.7 c 0.245 -0.247 0.68 -0.466 0.751 -0.501 c 0.317 -0.037 0.568 0.021 0.748 0.174 c 0.192 0.164 0.464 0.535 0.555 0.664 c -0.013 0.001 -0.031 0.004 -0.056 0.005 z m 10.757 -0.199 c 0.189 0.289 0.067 0.662 0.067 0.662 c -0.062 0.152 -0.102 0.168 -0.168 0.189 c -0.083 -0.352 -0.255 -0.686 -0.385 -0.835 l -0.107 0.093 c 0.107 0.121 0.286 0.451 0.363 0.814 c -0.091 0.09 -0.17 0.117 -0.323 0.117 a 0.551 0.551 0 0 1 -0.423 -0.227 c -0.076 -0.127 -0.476 -0.674 -0.764 -0.823 a 4.658 4.658 0 0 0 -0.247 -0.12 c 0.151 -0.111 0.286 -0.245 0.409 -0.366 a 4.16 4.16 0 0 1 0.205 -0.194 a 0.98 0.98 0 0 1 0.408 -0.189 c 0.033 0.014 0.119 0.05 0.238 0.119 c 0.341 0.198 0.509 0.43 0.727 0.76 z m -1.029 -1.031 l -0.037 0.033 a 1.04 1.04 0 0 0 -0.396 0.201 a 3.702 3.702 0 0 0 -0.215 0.201 c -0.072 0.072 -0.15 0.148 -0.232 0.222 c -1.459 0.913 -3.09 1.118 -5.13 1.118 c -1.741 0 -2.817 -0.301 -3.57 -0.666 c -0.111 -0.154 -0.363 -0.492 -0.555 -0.656 c -0.196 -0.168 -0.46 -0.238 -0.785 -0.213 l -0.013 -0.009 c -0.727 -0.517 -1.54 -1.816 -1.611 -2.575 c -0.038 -0.403 -0.037 -1.131 -0.036 -1.773 v -0.541 a 92.161 92.161 0 0 1 0.128 -4.777 c 0.038 -0.775 -0.055 -1.5 -0.153 -2.266 c -0.096 -0.745 -0.194 -1.516 -0.194 -2.44 c 0 -0.994 0.189 -2.891 0.597 -3.806 c 0.495 -1.113 1.05 -1.892 1.605 -2.251 C 8.099 0.676 10.165 0.212 12.517 0.212 c 1.946 0 3.512 0.484 4.53 1.399 c 0.646 0.583 1.294 1.819 1.523 2.63 c 0.375 1.326 0.453 2.696 0.453 3.611 c 0 0.236 -0.002 0.489 -0.006 0.763 a 58.336 58.336 0 0 0 0.079 4.125 l 0.028 0.482 c 0.056 0.963 0.108 1.873 0.108 3.131 c -0.001 0.385 -0.05 3.809 -1.785 5.329 z m 3.18 -8.888 c -0.134 -0.133 -0.391 -0.238 -0.424 -0.251 l -0.053 0.131 c 0.114 0.045 0.307 0.144 0.387 0.231 c -0.117 0.313 -0.284 0.293 -0.446 0.274 l -0.025 -0.003 c -0.086 -0.01 -0.308 -0.127 -0.444 -0.252 a 0.93 0.93 0 0 0 -0.315 -0.201 c -0.02 -0.348 -0.034 -0.676 -0.046 -0.988 a 0.575 0.575 0 0 1 0.151 0 c 0.171 0.021 0.808 0.19 1.034 0.36 c 0.225 0.169 0.271 0.247 0.271 0.464 a 0.325 0.325 0 0 1 -0.09 0.235 z" stroke-linecap="round"/>
</g>
<g transform="matrix(1 0 0 1 425.3749 872.9849)" style="" id="448061">
		
<path xml:space="preserve" font-family="Lato" font-size="71" font-style="normal" font-weight="bold" style="stroke: none; stroke-width: 1; stroke-dasharray: none; stroke-linecap: butt; stroke-dashoffset: 0; stroke-linejoin: miter; stroke-miterlimit: 4; is-custom-font: none; font-file-url: none; fill: rgb(97,114,192); fill-rule: nonzero; opacity: 1; white-space: pre;" d="M-212.44-29.03L-180.07-29.03L-180.07-21.43L-202.82-21.43L-202.82-7.20L-184.89-7.20L-184.89 0.15L-202.82 0.15L-202.82 14.67L-180.07 14.67L-180.07 22.30L-212.44 22.30L-212.44-29.03ZM-163.52 22.30L-172.29 22.30L-172.29-14.12L-166.93-14.12Q-165.23-14.12-164.70-12.52L-164.70-12.52L-164.13-9.82Q-163.17-10.89-162.12-11.78Q-161.07-12.66-159.89-13.30Q-158.70-13.94-157.33-14.31Q-155.96-14.69-154.33-14.69L-154.33-14.69Q-150.89-14.69-148.67-12.82Q-146.45-10.96-145.35-7.87L-145.35-7.87Q-144.50-9.68-143.22-10.98Q-141.94-12.27-140.41-13.09Q-138.89-13.91-137.17-14.30Q-135.44-14.69-133.70-14.69L-133.70-14.69Q-130.69-14.69-128.34-13.76Q-126.00-12.84-124.40-11.07Q-122.81-9.29-121.97-6.74Q-121.14-4.18-121.14-0.88L-121.14-0.88L-121.14 22.30L-129.91 22.30L-129.91-0.88Q-129.91-4.36-131.43-6.11Q-132.96-7.87-135.90-7.87L-135.90-7.87Q-137.25-7.87-138.41-7.41Q-139.56-6.95-140.43-6.08Q-141.30-5.21-141.80-3.90Q-142.29-2.58-142.29-0.88L-142.29-0.88L-142.29 22.30L-151.10 22.30L-151.10-0.88Q-151.10-4.53-152.57-6.20Q-154.05-7.87-156.92-7.87L-156.92-7.87Q-158.80-7.87-160.45-6.93Q-162.10-5.99-163.52-4.36L-163.52-4.36L-163.52 22.30ZM-103.74 34.20L-112.51 34.20L-112.51-14.12L-107.15-14.12Q-106.30-14.12-105.69-13.73Q-105.09-13.34-104.91-12.52L-104.91-12.52L-104.20-9.15Q-102.00-11.67-99.14-13.23Q-96.29-14.79-92.45-14.79L-92.45-14.79Q-89.47-14.79-87.00-13.55Q-84.54-12.31-82.74-9.95Q-80.95-7.59-79.97-4.13Q-79.00-0.66-79.00 3.81L-79.00 3.81Q-79.00 7.89-80.10 11.37Q-81.20 14.85-83.24 17.40Q-85.28 19.96-88.18 21.40Q-91.07 22.84-94.65 22.84L-94.65 22.84Q-97.74 22.84-99.89 21.90Q-102.04 20.95-103.74 19.29L-103.74 19.29L-103.74 34.20ZM-95.47-7.87L-95.47-7.87Q-98.20-7.87-100.14-6.72Q-102.07-5.56-103.74-3.47L-103.74-3.47L-103.74 12.86Q-102.25 14.71-100.49 15.43Q-98.74 16.16-96.71 16.16L-96.71 16.16Q-94.72 16.16-93.11 15.42Q-91.49 14.67-90.38 13.14Q-89.26 11.62-88.65 9.29Q-88.05 6.97-88.05 3.81L-88.05 3.81Q-88.05 0.61-88.57-1.61Q-89.08-3.82-90.04-5.21Q-91.00-6.59-92.36-7.23Q-93.73-7.87-95.47-7.87ZM-71.79-30.45L-63.02-30.45L-63.02 22.30L-71.79 22.30L-71.79-30.45ZM-37.57-14.69L-37.57-14.69Q-33.49-14.69-30.17-13.37Q-26.85-12.06-24.51-9.65Q-22.16-7.23-20.88-3.75Q-19.61-0.27-19.61 4.02L-19.61 4.02Q-19.61 8.35-20.88 11.83Q-22.16 15.31-24.51 17.76Q-26.85 20.21-30.17 21.52Q-33.49 22.84-37.57 22.84L-37.57 22.84Q-41.65 22.84-44.99 21.52Q-48.33 20.21-50.69 17.76Q-53.05 15.31-54.34 11.83Q-55.64 8.35-55.64 4.02L-55.64 4.02Q-55.64-0.27-54.34-3.75Q-53.05-7.23-50.69-9.65Q-48.33-12.06-44.99-13.37Q-41.65-14.69-37.57-14.69ZM-37.57 16.09L-37.57 16.09Q-33.03 16.09-30.84 13.04Q-28.66 9.99-28.66 4.09L-28.66 4.09Q-28.66-1.80-30.84-4.89Q-33.03-7.98-37.57-7.98L-37.57-7.98Q-42.18-7.98-44.39-4.87Q-46.59-1.77-46.59 4.09L-46.59 4.09Q-46.59 9.95-44.39 13.02Q-42.18 16.09-37.57 16.09ZM18.84-14.12L-1.00 32.31Q-1.40 33.24-2.02 33.72Q-2.64 34.20-3.92 34.20L-3.92 34.20L-10.45 34.20L-3.63 19.61L-18.36-14.12L-10.70-14.12Q-9.63-14.12-9.06-13.62Q-8.50-13.13-8.21-12.49L-8.21-12.49L-0.44 6.40Q-0.05 7.32 0.24 8.32Q0.52 9.31 0.73 10.30L0.73 10.30Q1.02 9.28 1.36 8.32Q1.69 7.36 2.08 6.36L2.08 6.36L9.40-12.49Q9.68-13.20 10.34-13.66Q10.99-14.12 11.81-14.12L11.81-14.12L18.84-14.12ZM37.83-14.69L37.83-14.69Q41.28-14.69 44.17-13.59Q47.06-12.49 49.16-10.37Q51.25-8.26 52.42-5.19Q53.59-2.12 53.59 1.82L53.59 1.82Q53.59 2.81 53.51 3.47Q53.42 4.13 53.19 4.50Q52.96 4.87 52.56 5.03Q52.17 5.19 51.57 5.19L51.57 5.19L29.06 5.19Q29.45 10.80 32.08 13.43Q34.71 16.06 39.04 16.06L39.04 16.06Q41.17 16.06 42.71 15.56Q44.26 15.06 45.41 14.46Q46.57 13.85 47.43 13.36Q48.30 12.86 49.12 12.86L49.12 12.86Q49.65 12.86 50.04 13.07Q50.43 13.29 50.72 13.68L50.72 13.68L53.27 16.87Q51.82 18.58 50.01 19.73Q48.20 20.88 46.23 21.58Q44.26 22.27 42.22 22.55Q40.18 22.84 38.26 22.84L38.26 22.84Q34.46 22.84 31.19 21.58Q27.93 20.32 25.51 17.85Q23.10 15.38 21.72 11.74Q20.33 8.10 20.33 3.31L20.33 3.31Q20.33-0.42 21.54-3.70Q22.74-6.98 25.00-9.42Q27.25-11.85 30.50-13.27Q33.75-14.69 37.83-14.69ZM38.01-8.40L38.01-8.40Q34.18-8.40 32.01-6.24Q29.84-4.07 29.24-0.10L29.24-0.10L45.71-0.10Q45.71-1.80 45.25-3.31Q44.79-4.82 43.83-5.95Q42.87-7.09 41.42-7.75Q39.96-8.40 38.01-8.40ZM75.78-14.69L75.78-14.69Q79.23-14.69 82.12-13.59Q85.01-12.49 87.11-10.37Q89.20-8.26 90.37-5.19Q91.54-2.12 91.54 1.82L91.54 1.82Q91.54 2.81 91.45 3.47Q91.37 4.13 91.14 4.50Q90.90 4.87 90.51 5.03Q90.12 5.19 89.52 5.19L89.52 5.19L67.01 5.19Q67.40 10.80 70.03 13.43Q72.66 16.06 76.99 16.06L76.99 16.06Q79.12 16.06 80.66 15.56Q82.21 15.06 83.36 14.46Q84.51 13.85 85.38 13.36Q86.25 12.86 87.07 12.86L87.07 12.86Q87.60 12.86 87.99 13.07Q88.38 13.29 88.67 13.68L88.67 13.68L91.22 16.87Q89.77 18.58 87.96 19.73Q86.15 20.88 84.18 21.58Q82.21 22.27 80.17 22.55Q78.12 22.84 76.21 22.84L76.21 22.84Q72.41 22.84 69.14 21.58Q65.88 20.32 63.46 17.85Q61.05 15.38 59.66 11.74Q58.28 8.10 58.28 3.31L58.28 3.31Q58.28-0.42 59.49-3.70Q60.69-6.98 62.95-9.42Q65.20-11.85 68.45-13.27Q71.70-14.69 75.78-14.69ZM75.96-8.40L75.96-8.40Q72.13-8.40 69.96-6.24Q67.79-4.07 67.19-0.10L67.19-0.10L83.66-0.10Q83.66-1.80 83.20-3.31Q82.74-4.82 81.78-5.95Q80.82-7.09 79.37-7.75Q77.91-8.40 75.96-8.40ZM137.84-29.03L158.00 22.30L150.62 22.30Q149.37 22.30 148.57 21.68Q147.78 21.06 147.42 20.14L147.42 20.14L143.59 9.67L122.32 9.67L118.49 20.14Q118.20 20.95 117.37 21.63Q116.54 22.30 115.33 22.30L115.33 22.30L107.91 22.30L128.07-29.03L137.84-29.03ZM131.02-14.08L124.77 2.92L141.14 2.92L134.89-14.15Q134.46-15.29 133.95-16.83Q133.43-18.38 132.94-20.19L132.94-20.19Q132.44-18.38 131.96-16.82Q131.48-15.26 131.02-14.08L131.02-14.08ZM180.33 4.23L173.16 4.23L173.16 22.30L163.61 22.30L163.61-29.03L180.33-29.03Q185.48-29.03 189.24-27.82Q193.00-26.62 195.45-24.45Q197.90-22.28 199.07-19.27Q200.24-16.25 200.24-12.66L200.24-12.66Q200.24-8.94 199.00-5.83Q197.76-2.72 195.27-0.49Q192.79 1.75 189.06 2.99Q185.33 4.23 180.33 4.23L180.33 4.23ZM173.16-21.65L173.16-3.22L180.33-3.22Q182.96-3.22 184.91-3.88Q186.86-4.53 188.14-5.76Q189.42-6.98 190.06-8.74Q190.70-10.50 190.70-12.66L190.70-12.66Q190.70-14.72 190.06-16.39Q189.42-18.06 188.14-19.23Q186.86-20.40 184.91-21.02Q182.96-21.65 180.33-21.65L180.33-21.65L173.16-21.65ZM218.42-29.03L218.42 22.30L208.84 22.30L208.84-29.03L218.42-29.03Z"/></g>
<g transform="matrix(1 0 0 1 535.7613 928.7999)" style="" id="680236">
		
<path xml:space="preserve" font-family="Lato" font-size="24" font-style="normal" font-weight="normal" style="stroke: none; stroke-width: 1; stroke-dasharray: none; stroke-linecap: butt; stroke-dashoffset: 0; stroke-linejoin: miter; stroke-miterlimit: 4; is-custom-font: none; font-file-url: none; fill: rgb(82,113,255); fill-rule: nonzero; opacity: 1; white-space: pre;" d="M-103.24 7.54L-109.33 7.54L-109.33-9.66L-103.84-9.66Q-102.26-9.66-101.11-9.34Q-99.97-9.03-99.23-8.46Q-98.49-7.88-98.14-7.05Q-97.78-6.21-97.78-5.17L-97.78-5.17Q-97.78-4.53-97.98-3.94Q-98.18-3.36-98.58-2.85Q-98.98-2.35-99.59-1.95Q-100.20-1.56-101.01-1.30L-101.01-1.30Q-99.13-0.93-98.17 0.05Q-97.21 1.04-97.21 2.64L-97.21 2.64Q-97.21 3.74-97.61 4.64Q-98.01 5.54-98.79 6.18Q-99.56 6.83-100.68 7.19Q-101.80 7.54-103.24 7.54L-103.24 7.54ZM-103.29-0.30L-107.00-0.30L-107.00 5.69L-103.28 5.69Q-102.28 5.69-101.57 5.46Q-100.86 5.24-100.39 4.82Q-99.93 4.41-99.72 3.84Q-99.50 3.27-99.50 2.58L-99.50 2.58Q-99.50 1.25-100.44 0.48Q-101.38-0.30-103.29-0.30L-103.29-0.30ZM-107.00-7.82L-107.00-1.95L-103.93-1.95Q-102.94-1.95-102.22-2.17Q-101.50-2.38-101.03-2.77Q-100.56-3.15-100.33-3.70Q-100.10-4.24-100.10-4.89L-100.10-4.89Q-100.10-6.40-101.01-7.11Q-101.92-7.82-103.84-7.82L-103.84-7.82L-107.00-7.82ZM-83.79-4.62L-90.57 11.13Q-90.68 11.37-90.84 11.51Q-91.00 11.66-91.34 11.66L-91.34 11.66L-92.92 11.66L-90.70 6.83L-95.72-4.62L-93.87-4.62Q-93.60-4.62-93.44-4.48Q-93.28-4.34-93.21-4.17L-93.21-4.17L-89.96 3.48Q-89.85 3.75-89.77 4.01Q-89.70 4.28-89.64 4.55L-89.64 4.55Q-89.55 4.28-89.47 4.01Q-89.38 3.75-89.28 3.47L-89.28 3.47L-86.12-4.17Q-86.05-4.36-85.87-4.49Q-85.70-4.62-85.50-4.62L-85.50-4.62L-83.79-4.62ZM-60.91-1.05L-60.91-1.05Q-60.91 0.88-61.52 2.49Q-62.13 4.11-63.25 5.27Q-64.36 6.44-65.93 7.08Q-67.50 7.72-69.39 7.72L-69.39 7.72Q-71.29 7.72-72.85 7.08Q-74.41 6.44-75.52 5.27Q-76.64 4.11-77.25 2.49Q-77.86 0.88-77.86-1.05L-77.86-1.05Q-77.86-2.98-77.25-4.60Q-76.64-6.21-75.52-7.38Q-74.41-8.55-72.85-9.20Q-71.29-9.85-69.39-9.85L-69.39-9.85Q-67.50-9.85-65.93-9.20Q-64.36-8.55-63.25-7.38Q-62.13-6.21-61.52-4.60Q-60.91-2.98-60.91-1.05ZM-63.30-1.05L-63.30-1.05Q-63.30-2.64-63.73-3.90Q-64.16-5.16-64.95-6.03Q-65.74-6.90-66.87-7.36Q-68.00-7.83-69.39-7.83L-69.39-7.83Q-70.77-7.83-71.90-7.36Q-73.03-6.90-73.83-6.03Q-74.62-5.16-75.06-3.90Q-75.49-2.64-75.49-1.05L-75.49-1.05Q-75.49 0.53-75.06 1.79Q-74.62 3.04-73.83 3.91Q-73.03 4.78-71.90 5.24Q-70.77 5.70-69.39 5.70L-69.39 5.70Q-68.00 5.70-66.87 5.24Q-65.74 4.78-64.95 3.91Q-64.16 3.04-63.73 1.79Q-63.30 0.53-63.30-1.05ZM-55.93 11.66L-58.06 11.66L-58.06-4.62L-56.79-4.62Q-56.34-4.62-56.22-4.17L-56.22-4.17L-56.04-2.73Q-55.26-3.68-54.25-4.26Q-53.25-4.83-51.94-4.83L-51.94-4.83Q-50.90-4.83-50.05-4.43Q-49.20-4.03-48.60-3.24Q-48.00-2.46-47.67-1.29Q-47.35-0.13-47.35 1.38L-47.35 1.38Q-47.35 2.73-47.71 3.89Q-48.07 5.04-48.74 5.89Q-49.41 6.74-50.39 7.22Q-51.37 7.71-52.59 7.71L-52.59 7.71Q-53.72 7.71-54.52 7.34Q-55.32 6.96-55.93 6.28L-55.93 6.28L-55.93 11.66ZM-52.65-3.10L-52.65-3.10Q-53.70-3.10-54.48-2.62Q-55.27-2.14-55.93-1.27L-55.93-1.27L-55.93 4.61Q-55.34 5.40-54.64 5.73Q-53.94 6.05-53.07 6.05L-53.07 6.05Q-51.38 6.05-50.47 4.84Q-49.56 3.63-49.56 1.38L-49.56 1.38Q-49.56 0.20-49.77-0.66Q-49.98-1.51-50.37-2.05Q-50.77-2.60-51.34-2.85Q-51.92-3.10-52.65-3.10ZM-37.38-3.39L-37.86-2.61Q-38.00-2.35-38.30-2.35L-38.30-2.35Q-38.48-2.35-38.71-2.48Q-38.94-2.61-39.27-2.77Q-39.60-2.94-40.05-3.07Q-40.51-3.21-41.13-3.21L-41.13-3.21Q-41.67-3.21-42.10-3.07Q-42.54-2.94-42.84-2.70Q-43.15-2.46-43.31-2.14Q-43.47-1.82-43.47-1.45L-43.47-1.45Q-43.47-0.98-43.20-0.67Q-42.93-0.36-42.49-0.13Q-42.04 0.10-41.48 0.27Q-40.92 0.45-40.32 0.65Q-39.73 0.84-39.16 1.08Q-38.60 1.32-38.16 1.68Q-37.71 2.04-37.44 2.57Q-37.17 3.09-37.17 3.82L-37.17 3.82Q-37.17 4.66-37.47 5.37Q-37.77 6.09-38.36 6.61Q-38.95 7.13-39.80 7.43Q-40.65 7.73-41.77 7.73L-41.77 7.73Q-43.04 7.73-44.07 7.32Q-45.10 6.90-45.82 6.26L-45.82 6.26L-45.32 5.44Q-45.22 5.28-45.09 5.20Q-44.96 5.12-44.74 5.12L-44.74 5.12Q-44.53 5.12-44.29 5.28Q-44.05 5.45-43.71 5.66Q-43.36 5.86-42.88 6.03Q-42.39 6.20-41.66 6.20L-41.66 6.20Q-41.04 6.20-40.57 6.03Q-40.10 5.87-39.79 5.60Q-39.48 5.32-39.33 4.96Q-39.18 4.60-39.18 4.19L-39.18 4.19Q-39.18 3.69-39.45 3.36Q-39.72 3.03-40.16 2.79Q-40.60 2.56-41.17 2.39Q-41.74 2.21-42.34 2.02Q-42.93 1.83-43.50 1.58Q-44.07 1.34-44.52 0.96Q-44.96 0.59-45.23 0.05Q-45.50-0.50-45.50-1.28L-45.50-1.28Q-45.50-1.98-45.21-2.62Q-44.92-3.26-44.37-3.75Q-43.82-4.23-43.02-4.52Q-42.21-4.81-41.18-4.81L-41.18-4.81Q-39.98-4.81-39.03-4.43Q-38.07-4.05-37.38-3.39L-37.38-3.39ZM-30.72 7.73L-30.72 7.73Q-32.16 7.73-32.93 6.93Q-33.70 6.12-33.70 4.61L-33.70 4.61L-33.70-2.83L-35.17-2.83Q-35.36-2.83-35.49-2.94Q-35.62-3.06-35.62-3.30L-35.62-3.30L-35.62-4.15L-33.63-4.40L-33.14-8.16Q-33.12-8.34-32.98-8.45Q-32.85-8.56-32.65-8.56L-32.65-8.56L-31.57-8.56L-31.57-4.38L-28.09-4.38L-28.09-2.83L-31.57-2.83L-31.57 4.47Q-31.57 5.24-31.20 5.61Q-30.82 5.98-30.24 5.98L-30.24 5.98Q-29.90 5.98-29.65 5.89Q-29.41 5.80-29.23 5.69Q-29.05 5.58-28.92 5.49Q-28.80 5.40-28.70 5.40L-28.70 5.40Q-28.53 5.40-28.40 5.61L-28.40 5.61L-27.78 6.63Q-28.33 7.14-29.11 7.44Q-29.89 7.73-30.72 7.73ZM-23.31 7.54L-25.45 7.54L-25.45-4.62L-24.22-4.62Q-23.88-4.62-23.74-4.48Q-23.61-4.35-23.56-4.03L-23.56-4.03L-23.42-2.13Q-22.80-3.40-21.88-4.12Q-20.96-4.83-19.72-4.83L-19.72-4.83Q-19.22-4.83-18.81-4.72Q-18.40-4.60-18.06-4.40L-18.06-4.40L-18.33-2.80Q-18.42-2.50-18.70-2.50L-18.70-2.50Q-18.87-2.50-19.22-2.62Q-19.57-2.73-20.19-2.73L-20.19-2.73Q-21.31-2.73-22.06-2.08Q-22.81-1.44-23.31-0.20L-23.31-0.20L-23.31 7.54ZM-10.96-4.81L-10.96-4.81Q-9.87-4.81-8.95-4.44Q-8.02-4.08-7.35-3.39Q-6.68-2.70-6.30-1.68Q-5.92-0.67-5.92 0.63L-5.92 0.63Q-5.92 1.13-6.03 1.30Q-6.14 1.47-6.44 1.47L-6.44 1.47L-14.53 1.47Q-14.50 2.62-14.22 3.47Q-13.93 4.32-13.42 4.89Q-12.92 5.46-12.22 5.75Q-11.53 6.03-10.66 6.03L-10.66 6.03Q-9.86 6.03-9.28 5.84Q-8.70 5.66-8.28 5.44Q-7.86 5.22-7.57 5.04Q-7.29 4.85-7.09 4.85L-7.09 4.85Q-6.82 4.85-6.68 5.06L-6.68 5.06L-6.08 5.84Q-6.48 6.32-7.03 6.67Q-7.58 7.02-8.21 7.25Q-8.84 7.48-9.51 7.59Q-10.18 7.71-10.84 7.71L-10.84 7.71Q-12.10 7.71-13.17 7.28Q-14.23 6.86-15.00 6.03Q-15.78 5.21-16.21 4.00Q-16.64 2.79-16.64 1.22L-16.64 1.22Q-16.64-0.06-16.25-1.16Q-15.86-2.26-15.13-3.07Q-14.40-3.88-13.34-4.35Q-12.28-4.81-10.96-4.81ZM-10.92-3.24L-10.92-3.24Q-12.46-3.24-13.35-2.34Q-14.24-1.45-14.46 0.14L-14.46 0.14L-7.84 0.14Q-7.84-0.61-8.05-1.23Q-8.25-1.84-8.65-2.29Q-9.04-2.74-9.61-2.99Q-10.18-3.24-10.92-3.24ZM1.61-4.81L1.61-4.81Q2.70-4.81 3.63-4.44Q4.55-4.08 5.22-3.39Q5.90-2.70 6.27-1.68Q6.65-0.67 6.65 0.63L6.65 0.63Q6.65 1.13 6.54 1.30Q6.44 1.47 6.14 1.47L6.14 1.47L-1.95 1.47Q-1.93 2.62-1.64 3.47Q-1.35 4.32-0.85 4.89Q-0.34 5.46 0.35 5.75Q1.05 6.03 1.91 6.03L1.91 6.03Q2.72 6.03 3.30 5.84Q3.88 5.66 4.30 5.44Q4.72 5.22 5.00 5.04Q5.28 4.85 5.49 4.85L5.49 4.85Q5.75 4.85 5.90 5.06L5.90 5.06L6.50 5.84Q6.10 6.32 5.55 6.67Q5.00 7.02 4.37 7.25Q3.74 7.48 3.06 7.59Q2.39 7.71 1.73 7.71L1.73 7.71Q0.47 7.71-0.59 7.28Q-1.65 6.86-2.43 6.03Q-3.20 5.21-3.63 4.00Q-4.06 2.79-4.06 1.22L-4.06 1.22Q-4.06-0.06-3.67-1.16Q-3.28-2.26-2.55-3.07Q-1.82-3.88-0.76-4.35Q0.29-4.81 1.61-4.81ZM1.66-3.24L1.66-3.24Q0.11-3.24-0.78-2.34Q-1.66-1.45-1.88 0.14L-1.88 0.14L4.73 0.14Q4.73-0.61 4.53-1.23Q4.32-1.84 3.93-2.29Q3.53-2.74 2.96-2.99Q2.39-3.24 1.66-3.24ZM23.72-8.07L23.15-6.97Q23.04-6.79 22.92-6.70Q22.80-6.61 22.61-6.61L22.61-6.61Q22.41-6.61 22.14-6.81Q21.87-7.02 21.45-7.26Q21.04-7.51 20.46-7.71Q19.88-7.92 19.05-7.92L19.05-7.92Q18.27-7.92 17.67-7.71Q17.07-7.50 16.67-7.14Q16.26-6.78 16.06-6.29Q15.86-5.80 15.86-5.24L15.86-5.24Q15.86-4.52 16.21-4.05Q16.56-3.57 17.15-3.24Q17.73-2.90 18.47-2.65Q19.20-2.41 19.98-2.14Q20.75-1.88 21.49-1.55Q22.23-1.22 22.81-0.72Q23.39-0.21 23.75 0.52Q24.10 1.25 24.10 2.32L24.10 2.32Q24.10 3.45 23.72 4.44Q23.33 5.43 22.59 6.16Q21.86 6.89 20.78 7.31Q19.71 7.73 18.34 7.73L18.34 7.73Q16.67 7.73 15.30 7.13Q13.92 6.52 12.95 5.49L12.95 5.49L13.62 4.38Q13.72 4.25 13.86 4.16Q14.00 4.07 14.16 4.07L14.16 4.07Q14.42 4.07 14.74 4.34Q15.06 4.61 15.55 4.94Q16.04 5.26 16.73 5.53Q17.42 5.80 18.41 5.80L18.41 5.80Q19.24 5.80 19.89 5.57Q20.54 5.34 20.99 4.93Q21.44 4.52 21.68 3.94Q21.92 3.36 21.92 2.66L21.92 2.66Q21.92 1.88 21.56 1.38Q21.21 0.88 20.63 0.54Q20.06 0.21 19.32-0.03Q18.58-0.26 17.81-0.51Q17.03-0.75 16.29-1.08Q15.56-1.40 14.98-1.92Q14.40-2.43 14.05-3.21Q13.70-3.98 13.70-5.12L13.70-5.12Q13.70-6.03 14.05-6.88Q14.40-7.74 15.08-8.40Q15.75-9.06 16.74-9.45Q17.73-9.85 19.01-9.85L19.01-9.85Q20.45-9.85 21.64-9.39Q22.83-8.94 23.72-8.07L23.72-8.07ZM31.65-4.81L31.65-4.81Q32.98-4.81 34.05-4.36Q35.13-3.92 35.88-3.10Q36.63-2.29 37.03-1.13Q37.43 0.03 37.43 1.46L37.43 1.46Q37.43 2.90 37.03 4.05Q36.63 5.20 35.88 6.02Q35.13 6.83 34.05 7.27Q32.98 7.71 31.65 7.71L31.65 7.71Q30.32 7.71 29.24 7.27Q28.17 6.83 27.41 6.02Q26.66 5.20 26.25 4.05Q25.84 2.90 25.84 1.46L25.84 1.46Q25.84 0.03 26.25-1.13Q26.66-2.29 27.41-3.10Q28.17-3.92 29.24-4.36Q30.32-4.81 31.65-4.81ZM31.65 6.04L31.65 6.04Q33.45 6.04 34.34 4.83Q35.22 3.63 35.22 1.47L35.22 1.47Q35.22-0.70 34.34-1.92Q33.45-3.13 31.65-3.13L31.65-3.13Q30.74-3.13 30.06-2.82Q29.39-2.50 28.94-1.92Q28.49-1.33 28.27-0.47Q28.05 0.39 28.05 1.47L28.05 1.47Q28.05 2.55 28.27 3.40Q28.49 4.25 28.94 4.83Q29.39 5.42 30.06 5.73Q30.74 6.04 31.65 6.04ZM40.31-10.14L42.45-10.14L42.45 7.54L40.31 7.54L40.31-10.14ZM45.93-4.62L48.06-4.62L48.06 3.14Q48.06 4.52 48.70 5.27Q49.34 6.03 50.62 6.03L50.62 6.03Q51.56 6.03 52.38 5.58Q53.21 5.14 53.91 4.35L53.91 4.35L53.91-4.62L56.04-4.62L56.04 7.54L54.77 7.54Q54.32 7.54 54.20 7.10L54.20 7.10L54.03 5.79Q53.24 6.66 52.25 7.20Q51.27 7.73 50.00 7.73L50.00 7.73Q49.00 7.73 48.24 7.40Q47.48 7.07 46.96 6.47Q46.44 5.87 46.19 5.02Q45.93 4.17 45.93 3.14L45.93 3.14L45.93-4.62ZM63.24 7.73L63.24 7.73Q61.80 7.73 61.03 6.93Q60.26 6.12 60.26 4.61L60.26 4.61L60.26-2.83L58.79-2.83Q58.60-2.83 58.47-2.94Q58.34-3.06 58.34-3.30L58.34-3.30L58.34-4.15L60.33-4.40L60.82-8.16Q60.84-8.34 60.98-8.45Q61.11-8.56 61.31-8.56L61.31-8.56L62.39-8.56L62.39-4.38L65.87-4.38L65.87-2.83L62.39-2.83L62.39 4.47Q62.39 5.24 62.76 5.61Q63.14 5.98 63.72 5.98L63.72 5.98Q64.06 5.98 64.31 5.89Q64.55 5.80 64.73 5.69Q64.91 5.58 65.04 5.49Q65.16 5.40 65.26 5.40L65.26 5.40Q65.43 5.40 65.56 5.61L65.56 5.61L66.18 6.63Q65.63 7.14 64.85 7.44Q64.07 7.73 63.24 7.73ZM68.75-4.62L70.89-4.62L70.89 7.54L68.75 7.54L68.75-4.62ZM71.37-8.43L71.37-8.43Q71.37-8.12 71.24-7.85Q71.12-7.58 70.91-7.37Q70.70-7.16 70.42-7.04Q70.14-6.92 69.83-6.92L69.83-6.92Q69.52-6.92 69.25-7.04Q68.98-7.16 68.77-7.37Q68.56-7.58 68.44-7.85Q68.32-8.12 68.32-8.43L68.32-8.43Q68.32-8.74 68.44-9.03Q68.56-9.31 68.77-9.52Q68.98-9.73 69.25-9.85Q69.52-9.97 69.83-9.97L69.83-9.97Q70.14-9.97 70.42-9.85Q70.70-9.73 70.91-9.52Q71.12-9.31 71.24-9.03Q71.37-8.74 71.37-8.43ZM79.58-4.81L79.58-4.81Q80.91-4.81 81.98-4.36Q83.06-3.92 83.81-3.10Q84.56-2.29 84.96-1.13Q85.36 0.03 85.36 1.46L85.36 1.46Q85.36 2.90 84.96 4.05Q84.56 5.20 83.81 6.02Q83.06 6.83 81.98 7.27Q80.91 7.71 79.58 7.71L79.58 7.71Q78.24 7.71 77.17 7.27Q76.10 6.83 75.34 6.02Q74.58 5.20 74.18 4.05Q73.77 2.90 73.77 1.46L73.77 1.46Q73.77 0.03 74.18-1.13Q74.58-2.29 75.34-3.10Q76.10-3.92 77.17-4.36Q78.24-4.81 79.58-4.81ZM79.58 6.04L79.58 6.04Q81.38 6.04 82.26 4.83Q83.15 3.63 83.15 1.47L83.15 1.47Q83.15-0.70 82.26-1.92Q81.38-3.13 79.58-3.13L79.58-3.13Q78.66-3.13 77.99-2.82Q77.32-2.50 76.87-1.92Q76.42-1.33 76.20-0.47Q75.98 0.39 75.98 1.47L75.98 1.47Q75.98 2.55 76.20 3.40Q76.42 4.25 76.87 4.83Q77.32 5.42 77.99 5.73Q78.66 6.04 79.58 6.04ZM90.14 7.54L88.00 7.54L88.00-4.62L89.27-4.62Q89.73-4.62 89.85-4.17L89.85-4.17L90.02-2.85Q90.81-3.73 91.79-4.27Q92.76-4.81 94.05-4.81L94.05-4.81Q95.04-4.81 95.81-4.48Q96.57-4.15 97.08-3.54Q97.59-2.94 97.85-2.08Q98.12-1.23 98.12-0.20L98.12-0.20L98.12 7.54L95.98 7.54L95.98-0.20Q95.98-1.58 95.35-2.34Q94.72-3.10 93.42-3.10L93.42-3.10Q92.48-3.10 91.65-2.65Q90.83-2.19 90.14-1.41L90.14-1.41L90.14 7.54ZM108.78-3.39L108.30-2.61Q108.16-2.35 107.86-2.35L107.86-2.35Q107.68-2.35 107.45-2.48Q107.22-2.61 106.89-2.77Q106.56-2.94 106.11-3.07Q105.65-3.21 105.03-3.21L105.03-3.21Q104.49-3.21 104.06-3.07Q103.62-2.94 103.32-2.70Q103.01-2.46 102.85-2.14Q102.69-1.82 102.69-1.45L102.69-1.45Q102.69-0.98 102.96-0.67Q103.23-0.36 103.67-0.13Q104.12 0.10 104.68 0.27Q105.24 0.45 105.84 0.65Q106.43 0.84 107.00 1.08Q107.56 1.32 108.00 1.68Q108.45 2.04 108.72 2.57Q108.99 3.09 108.99 3.82L108.99 3.82Q108.99 4.66 108.69 5.37Q108.39 6.09 107.80 6.61Q107.21 7.13 106.36 7.43Q105.51 7.73 104.39 7.73L104.39 7.73Q103.12 7.73 102.09 7.32Q101.06 6.90 100.34 6.26L100.34 6.26L100.84 5.44Q100.94 5.28 101.07 5.20Q101.20 5.12 101.42 5.12L101.42 5.12Q101.63 5.12 101.87 5.28Q102.11 5.45 102.45 5.66Q102.80 5.86 103.28 6.03Q103.77 6.20 104.50 6.20L104.50 6.20Q105.12 6.20 105.59 6.03Q106.06 5.87 106.37 5.60Q106.68 5.32 106.83 4.96Q106.98 4.60 106.98 4.19L106.98 4.19Q106.98 3.69 106.71 3.36Q106.44 3.03 106.00 2.79Q105.56 2.56 104.99 2.39Q104.42 2.21 103.82 2.02Q103.23 1.83 102.66 1.58Q102.09 1.34 101.64 0.96Q101.20 0.59 100.93 0.05Q100.66-0.50 100.66-1.28L100.66-1.28Q100.66-1.98 100.95-2.62Q101.24-3.26 101.79-3.75Q102.34-4.23 103.14-4.52Q103.95-4.81 104.98-4.81L104.98-4.81Q106.18-4.81 107.13-4.43Q108.09-4.05 108.78-3.39L108.78-3.39Z"/></g>
</svg>